<?xml version="1.0" encoding="utf-8"?><svg viewBox="0 0 97 95" xmlns="http://www.w3.org/2000/svg" xmlns:xlink="http://www.w3.org/1999/xlink"><style>:root>svg{display:none}:root>svg:target{display:block}</style><svg viewBox="0 0 83 84" id="ic_education1" xmlns="http://www.w3.org/2000/svg"><path fill-rule="evenodd" d="M.669 83.398v-2.722h81.662v2.722H.669zm76.218-56.926c.752 0 1.361.61 1.361 1.361V75.47c0 .751-.609 1.361-1.361 1.361H67.36c-.752 0-1.361-.61-1.361-1.361V27.833c0-.751.609-1.361 1.361-1.361h9.527zm-8.166 47.637h6.805V29.194h-6.805v44.915zm-6.806-28.582c.752 0 1.362.609 1.362 1.361V75.47c0 .751-.61 1.361-1.362 1.361h-9.527c-.751 0-1.361-.61-1.361-1.361V46.888c0-.752.61-1.361 1.361-1.361h9.527zM53.75 74.109h6.805v-25.86H53.75v25.86zm-6.805-19.055c.751 0 1.36.609 1.36 1.361V75.47c0 .751-.609 1.361-1.36 1.361h-9.528c-.752 0-1.361-.61-1.361-1.361V56.415a1.36 1.36 0 0 1 1.361-1.361h9.528zm-8.167 19.055h6.805V57.776h-6.805v16.333zm-6.805-12.25c.751 0 1.361.609 1.361 1.361v12.25c0 .751-.61 1.361-1.361 1.361h-9.528c-.751 0-1.361-.61-1.361-1.361V63.22c0-.752.61-1.361 1.361-1.361h9.528zm-8.167 12.25h6.806v-9.528h-6.806v9.528zM7.474 65.943h9.527a1.36 1.36 0 0 1 1.361 1.361v8.166c0 .751-.609 1.361-1.361 1.361H7.474c-.752 0-1.361-.61-1.361-1.361v-8.166a1.36 1.36 0 0 1 1.361-1.361zm1.361 8.166h6.805v-5.445H8.835v5.445zM78.857 14.08a1.362 1.362 0 0 1-1.827-.61l-4.004-8.009-2.197 6.277C61.02 39.69 35.742 59.303 6.229 61.859l-.232-2.722C34.439 56.673 58.8 37.775 68.258 10.839l2.152-6.143-7.886 3.94a1.362 1.362 0 1 1-1.217-2.437L72.196.755h.001a1.36 1.36 0 0 1 1.825.61l5.444 10.888a1.362 1.362 0 0 1-.609 1.827zM19.723 27.833H7.474v-2.722h12.249v2.722zM7.474 19.667h12.249v2.722H7.474v-2.722zm0-5.444h17.693v2.722H7.474v-2.722zm0-5.444h17.693v2.722H7.474V8.779z"/></svg><svg viewBox="0 0 83 87" id="ic_education2" xmlns="http://www.w3.org/2000/svg"><path fill-rule="evenodd" d="M77.067 3.359H65.108l.1-1.403a1.694 1.694 0 0 0-1.69-1.815H19.482a1.697 1.697 0 0 0-1.689 1.815l.1 1.403H5.933C3.131 3.359.851 5.62.851 8.398v4.729a32.254 32.254 0 0 0 6.292 19.208 32.246 32.246 0 0 0 16.435 11.764l3.057.961a21.644 21.644 0 0 0 4.768 3.402 5.162 5.162 0 0 0-.065.797 5.088 5.088 0 0 0 3.387 4.789v4.187h-5.081a5.088 5.088 0 0 0-5.081 5.081v5.59H22.87a5.087 5.087 0 0 0-5.082 5.081v11.178c0 .936.759 1.694 1.694 1.694h44.036c.936 0 1.694-.758 1.694-1.694V73.987a5.087 5.087 0 0 0-5.082-5.081h-1.693v-5.59a5.087 5.087 0 0 0-5.081-5.081h-5.081v-4.184a5.083 5.083 0 0 0 3.388-4.792 5.03 5.03 0 0 0-.066-.796 21.559 21.559 0 0 0 4.777-3.412c.027-.007.053-.013.079-.021l2.962-.931a32.267 32.267 0 0 0 16.441-11.766 32.26 32.26 0 0 0 6.293-19.213V8.398c0-2.778-2.279-5.039-5.082-5.039zM63.148 30.796l1.234-17.274h7.601a22.317 22.317 0 0 1-8.847 17.407l.012-.133zm-43.296-.001l.011.138c-5.426-4.082-8.726-10.466-8.846-17.411h7.602l1.233 17.273zM4.239 13.127V8.398c0-.926.744-1.651 1.694-1.651h12.202l.242 3.387H9.32c-.936 0-1.694.758-1.694 1.694v1.301c0 9.346 5.004 17.87 13.096 22.396a21.604 21.604 0 0 0 2.057 4.706c-11.166-4.325-18.54-14.986-18.54-27.104zM60.13 72.293c.935 0 1.694.76 1.694 1.694v9.485H21.176v-9.485c0-.934.76-1.694 1.694-1.694h37.26zm-6.774-10.671c.934 0 1.694.76 1.694 1.694v5.59h-27.1v-5.59c0-.934.76-1.694 1.694-1.694h23.712zm-15.243-3.387v-3.896h6.774v3.896h-6.774zm8.468-7.283H36.419a1.695 1.695 0 0 1-1.694-1.693c0-.928.753-1.694 1.694-1.694h10.162a1.694 1.694 0 0 1 0 3.387zm7.997-8.882a18.247 18.247 0 0 1-4.601 3.412 5.086 5.086 0 0 0-3.396-1.304H36.419a5.043 5.043 0 0 0-3.397 1.303 18.28 18.28 0 0 1-4.32-3.131 18.262 18.262 0 0 1-5.471-11.796l-1.93-27.026h40.398L59.77 30.554a18.258 18.258 0 0 1-5.192 11.516zm24.183-28.95c0 12.119-7.373 22.781-18.54 27.108a21.633 21.633 0 0 0 2.056-4.702c8.079-4.519 13.097-13.106 13.097-22.408v-1.29c0-.936-.758-1.694-1.693-1.694h-9.057l.241-3.387h12.202c.95 0 1.694.725 1.694 1.651v4.722z"/></svg><svg viewBox="0 0 97 75" id="ic_education3" xmlns="http://www.w3.org/2000/svg"><path fill-rule="evenodd" d="M92.066 74.612H71.09a4.84 4.84 0 0 1-4.84-4.841V21.364a4.84 4.84 0 0 1 4.84-4.84h20.976a4.84 4.84 0 0 1 4.841 4.84v48.407a4.84 4.84 0 0 1-4.841 4.841zm1.614-53.248c0-.89-.723-1.613-1.614-1.613H71.09c-.891 0-1.614.723-1.614 1.613v1.614H93.68v-1.614zm0 4.841H69.476v37.112H93.68V26.205zm0 40.339H69.476v3.227c0 .891.723 1.614 1.614 1.614h20.976c.891 0 1.614-.723 1.614-1.614v-3.227zM80.771 13.297a1.614 1.614 0 0 1-1.614-1.614V6.439a2.804 2.804 0 0 0-2.778-2.824H6.099A2.806 2.806 0 0 0 3.32 6.439v39.128h58.089a1.614 1.614 0 0 1 0 3.228H3.32v2.017a2.806 2.806 0 0 0 2.779 2.824h55.31a1.613 1.613 0 0 1 0 3.227H46.886v14.522h14.523a1.613 1.613 0 0 1 0 3.227H21.07a1.613 1.613 0 1 1 0-3.227h14.521V56.863H6.099a6.037 6.037 0 0 1-6.006-6.051V6.439A6.037 6.037 0 0 1 6.099.388h70.28a6.037 6.037 0 0 1 6.006 6.051v5.244c0 .891-.723 1.614-1.614 1.614zM38.819 71.385h4.84V56.863h-4.84v14.522z"/></svg><svg viewBox="0 0 87 87" id="ic_education4" xmlns="http://www.w3.org/2000/svg"><path fill-rule="evenodd" d="M74.168 74.168c-16.934 16.934-44.39 16.934-61.324.001-16.934-16.935-16.934-44.391 0-61.324C29.778-4.09 57.233-4.091 74.168 12.844a43.079 43.079 0 0 1 12.701 30.662c0 11.5-4.569 22.53-12.701 30.662zm-31.26-29.347a1.423 1.423 0 0 1-.31-.193l-.026-.022a1.247 1.247 0 0 1-.079-.084 1.479 1.479 0 0 1-.194-.225c-.019-.028-.029-.06-.046-.09a1.394 1.394 0 0 1-.096-.208c-.01-.027-.023-.052-.034-.076-.012-.023-.005-.044-.012-.073-.007-.029-.027-.057-.027-.086a1.106 1.106 0 0 1-.009-.163c-.003-.033-.014-.062-.014-.095V3.06C20.289 3.841 3.043 21.715 3.04 43.5c-.003 22.352 18.114 40.475 40.466 40.478a40.587 40.587 0 0 0 36.22-22.421L42.908 44.821zM44.951 3.06v36.956l26.132-26.132A40.146 40.146 0 0 0 44.951 3.06zm28.178 12.868L46.004 43.053l34.921 15.874a40.472 40.472 0 0 0-7.796-42.999zm-7.942 24.687h10.118v2.891H65.187v-2.891zm0-5.782h10.118v2.891H65.187v-2.891zm-5.782-18.79H49.288v-2.891h10.117v2.891zm-5.781 5.781h-4.336v-2.891h4.336v2.891zM21.825 69.523H39.17v2.891H21.825v-2.891zm0-5.781H39.17v2.891H21.825v-2.891zm0-5.783H39.17v2.891H21.825v-2.891z"/></svg><svg viewBox="0 0 94 86" id="ic_education5" xmlns="http://www.w3.org/2000/svg"><path fill-rule="evenodd" d="M70.287 48.334c4.112 0 7.458 3.345 7.458 7.457s-3.346 7.457-7.458 7.457-7.458-3.345-7.458-7.457 3.346-7.457 7.458-7.457zm0 12.189a4.738 4.738 0 0 0 4.732-4.732 4.737 4.737 0 0 0-4.732-4.731 4.737 4.737 0 0 0-4.731 4.731 4.737 4.737 0 0 0 4.731 4.732zM56.955 75.437c-4.112 0-7.458-3.345-7.458-7.457s3.346-7.457 7.458-7.457c4.113 0 7.458 3.345 7.458 7.457s-3.345 7.457-7.458 7.457zm0-12.189a4.737 4.737 0 0 0-4.731 4.732 4.736 4.736 0 0 0 4.731 4.731 4.737 4.737 0 0 0 4.732-4.731 4.738 4.738 0 0 0-4.732-4.732zM8.061 40.958c0-4.112 3.346-7.457 7.458-7.457s7.458 3.345 7.458 7.457c0 4.111-3.346 7.457-7.458 7.457s-7.458-3.346-7.458-7.457zm7.458 4.731a4.737 4.737 0 0 0 4.732-4.731 4.737 4.737 0 0 0-4.732-4.731 4.737 4.737 0 0 0-4.732 4.731 4.737 4.737 0 0 0 4.732 4.731zm4.833 21.708c-4.112 0-7.457-3.345-7.457-7.457s3.345-7.457 7.457-7.457 7.458 3.345 7.458 7.457-3.346 7.457-7.458 7.457zm0-12.188a4.737 4.737 0 0 0-4.731 4.731 4.737 4.737 0 0 0 4.731 4.732 4.737 4.737 0 0 0 4.732-4.732 4.737 4.737 0 0 0-4.732-4.731zm7.623-30.93c-3.91-4.214.064-9.502 1.66-11.098 3.314-3.314 8.457-3.461 11.21-.54 2.692 2.855 1.888 7.889-1.66 11.098-1.674 1.514-7.256 4.801-11.21.54zm2.022-1.828c2.423 2.422 6.137.372 7.36-.734 2.433-2.2 3.176-5.538 1.466-7.248-1.711-1.711-5.01-1.616-7.359.734-1.167 1.165-3.889 4.825-1.467 7.248zm6.986 53.328c.986 0 1.93-.299 2.73-.867a1.364 1.364 0 0 1 1.575 2.225 7.406 7.406 0 0 1-4.305 1.368c-4.112 0-7.458-3.345-7.458-7.457s3.346-7.458 7.458-7.458 7.458 3.346 7.458 7.458a1.363 1.363 0 0 1-2.727 0 4.737 4.737 0 0 0-4.731-4.732 4.738 4.738 0 0 0-4.732 4.732 4.737 4.737 0 0 0 4.732 4.731zM91.55 10.074c-1.447 2.541-3.706 5.811-6.715 9.721a238.02 238.02 0 0 1-8.049 9.853c5.375 2.759 8.418 8.573 8.826 16.938.455 9.3-2.584 17.588-9.031 24.634-5.382 5.883-11.607 10.039-18.501 12.354-4.38 1.47-9.061 2.207-13.984 2.207-2.637 0-5.344-.212-8.112-.635C18.83 82.521 4.928 69.191 1.391 51.977c-2.559-12.456.454-25.269 8.268-35.153a1.362 1.362 0 1 1 2.138 1.69C4.484 27.765 1.664 39.762 4.061 51.429 7.37 67.531 20.364 79.998 36.396 82.451c2.65.405 5.228.608 7.73.608 11.906 0 22.121-4.582 30.444-13.68 5.938-6.489 8.737-14.114 8.32-22.66-.379-7.747-3.058-12.767-7.962-14.94-1.365 1.546-2.391 2.658-2.861 3.129a9.171 9.171 0 0 1-4.096 2.381c-.541 2.107-1.918 4.104-4.258 5.737-5.349 3.736-12.445 2.018-14.239 1.631a3.055 3.055 0 0 1-2.311-2.121 3.13 3.13 0 0 1 .742-3.083c1.1-1.142 1.843-3.294 2.969-6.551 0 0 .604-2.218 1.687-3.346-2.041-1.042-3.072-2.448-3.591-3.571a.37.37 0 0 1-.013-.029c-2.052-4.728 2.122-11.5 2.797-12.544a6.273 6.273 0 0 0-.252-6.12c-.897-1.469-3.241-3.933-8.854-3.932-7.618.085-14.722 2.21-21.1 6.316a40.497 40.497 0 0 0-6.096 4.812 1.362 1.362 0 1 1-1.888-1.966 43.214 43.214 0 0 1 6.509-5.138C26.889 2.996 34.479.725 42.633.634c2.658 0 4.992.49 6.952 1.456 1.81.893 3.277 2.2 4.244 3.782 1.653 2.705 1.773 6.012.32 8.844a1.199 1.199 0 0 1-.073.125c-1.163 1.78-3.898 7.043-2.625 10.015.599 1.283 1.832 2.226 3.665 2.808.987-.423 2.115-.647 3.367-.664a9.195 9.195 0 0 1 2.193-3.482c1.357-1.358 8.06-7.338 15.114-12.766 3.91-3.009 7.181-5.269 9.722-6.716 4.842-2.758 6.449-2.127 7.307-1.269 1.634 1.634.18 4.763-1.269 7.307zm-31.33 25.29c-1.518-1.517-2.252-3.544-2.225-5.615-3.714.279-4.545 4.044-4.545 4.044-1.243 3.599-2.064 5.976-3.581 7.551a.39.39 0 0 0-.099.397c.03.094.101.214.277.253 7.082 1.523 10.582-.069 12.038-1.153 1.391-1.036 2.361-2.135 2.9-3.283-1.768-.157-3.455-.885-4.765-2.194zm2.384-9.919c-2.329 2.329-2.534 5.914-.457 7.992 2.078 2.077 5.663 1.873 7.993-.456.563-.563 2.044-2.185 3.988-4.426a33.913 33.913 0 0 1-3.815-3.283 33.89 33.89 0 0 1-3.283-3.814c-2.241 1.943-3.863 3.424-4.426 3.987zm14.062-11.924a236.713 236.713 0 0 0-7.56 6.156 31.035 31.035 0 0 0 3.135 3.667 31.027 31.027 0 0 0 3.667 3.134 234.12 234.12 0 0 0 6.157-7.559c2.846-3.656 5.051-6.764 6.552-9.235 1.923-3.166 2.187-4.479 2.206-4.921-.736.031-3.881.759-14.157 8.758z"/></svg><svg viewBox="0 0 93 79" id="ic_education6" xmlns="http://www.w3.org/2000/svg"><path fill-rule="evenodd" d="M91.331 10.131h-6.183V2.402A1.547 1.547 0 0 0 83.472.856l-4.034.34a93.814 93.814 0 0 0-28.429 6.931L46.5 10.002l-4.505-1.868A93.8 93.8 0 0 0 13.563 1.2L9.528.856a1.545 1.545 0 0 0-1.675 1.546v7.729H1.669c-.853 0-1.546.692-1.546 1.546v64.927c0 .854.693 1.546 1.546 1.546h89.662c.853 0 1.546-.692 1.546-1.546V11.677c0-.854-.693-1.546-1.546-1.546zM3.215 75.061V13.223h4.638v54.106a1.546 1.546 0 0 0 1.414 1.546l4.16.355a89.04 89.04 0 0 1 3.401.351c.379.045.755.105 1.133.155.75.1 1.5.2 2.247.32.445.071.888.154 1.332.233.677.119 1.354.238 2.028.371.464.092.928.195 1.391.295.651.139 1.302.282 1.95.436a114.764 114.764 0 0 1 3.313.857c.464.13.927.266 1.391.401a91.227 91.227 0 0 1 5.151 1.695c.445.154.892.323 1.334.492.192.072.382.154.572.225H3.215zm41.739-.775l-2.85-1.191a93.78 93.78 0 0 0-28.416-6.957l-2.744-.229V4.083l2.36.198a90.713 90.713 0 0 1 27.503 6.705l4.147 1.722v61.578zm3.092 0V12.708l4.152-1.724a90.73 90.73 0 0 1 27.498-6.703l2.36-.198v61.822l-2.54.207a94.407 94.407 0 0 0-28.445 6.916l-3.025 1.258zm41.739.772H54.353c.212-.082.422-.169.634-.248.464-.179.928-.347 1.402-.516a89.583 89.583 0 0 1 1.826-.638l1.432-.464c.612-.194 1.225-.38 1.839-.563a74.6 74.6 0 0 1 1.45-.415 67.08 67.08 0 0 1 1.87-.495c.48-.122.96-.244 1.443-.359.643-.154 1.29-.294 1.938-.431.464-.1.928-.204 1.401-.297.68-.134 1.363-.253 2.045-.372l1.326-.232a88.887 88.887 0 0 1 2.291-.326c.367-.048.733-.107 1.101-.155a96.191 96.191 0 0 1 3.418-.351l3.959-.321a1.548 1.548 0 0 0 1.42-1.546V13.223h4.637v61.835z"/></svg><svg viewBox="0 0 89 95" id="ic_education7" xmlns="http://www.w3.org/2000/svg"><path fill-rule="evenodd" d="M86.698 94.387a1.562 1.562 0 0 1-1.562-1.562v-2.956c0-11.87-8.545-20.488-20.318-20.488h-8.73L45.605 79.863c-.61.611-1.6.611-2.21 0L32.913 69.381h-8.731c-11.773 0-20.318 8.618-20.318 20.488v2.956a1.562 1.562 0 0 1-3.125 0v-2.956c0-13.683 9.86-23.614 23.443-23.614h9.378c.414 0 .811.164 1.105.458l9.835 9.835 9.835-9.835a1.561 1.561 0 0 1 1.105-.458h9.378c13.583 0 23.443 9.931 23.443 23.614v2.956c0 .863-.699 1.562-1.563 1.562zm-18.453-34.21a10.016 10.016 0 0 1-2.244-.221v.007a1.563 1.563 0 0 1 .749-3.035 11.665 11.665 0 0 0 9.196-2.668 27.724 27.724 0 0 1-2.617-1.346 1.564 1.564 0 0 1 1.583-2.696 26.883 26.883 0 0 0 4.468 2.058 1.564 1.564 0 0 1 .609 2.587 16.523 16.523 0 0 1-11.744 5.314zm-16.139-3.279a6.27 6.27 0 0 1-12.137 0 6.272 6.272 0 0 1 12.137-3.167h.208c9.479-.011 17.161-7.693 17.172-17.171a1.583 1.583 0 1 1 3.167 0c-.013 11.227-9.111 20.325-20.339 20.338h-.208zm-6.043-4.689a3.106 3.106 0 1 0 0 6.211 3.106 3.106 0 0 0 0-6.211zm26.57-4.709a1.564 1.564 0 0 1 0-3.126c.863 0 1.562-.7 1.562-1.563v-9.377c0-.864-.699-1.563-1.562-1.563h-4.761l-.699 11.47a1.582 1.582 0 0 1-3.158-.192l.684-11.262H24.307l.685 11.262c.636 11.94 8.411 19.955 19.352 19.955h.312a19.448 19.448 0 0 0 8.529-1.876 1.581 1.581 0 1 1 1.373 2.851 22.62 22.62 0 0 1-9.902 2.197h-.329c-12.729 0-21.777-9.222-22.506-22.943l-.782-12.928a1.585 1.585 0 0 1 1.58-1.68h6.232v-6.232a1.583 1.583 0 1 1 3.166 0v6.232h6.211v-6.232a1.583 1.583 0 0 1 3.166 0v6.232h6.211v-6.232a1.583 1.583 0 0 1 3.167 0v6.232h6.211v-6.232a1.583 1.583 0 1 1 3.166 0v6.232h6.232c.033 0 .062.02.095.02h6.157a4.688 4.688 0 0 1 4.688 4.689v9.377a4.688 4.688 0 0 1-4.688 4.689zM71.16 24.01a1.565 1.565 0 0 1-1.882-1.16A18.544 18.544 0 0 0 63.8 12.741a1.861 1.861 0 0 1-.181-.185c-.073-.089-7.531-8.818-19.119-8.818-11.587 0-19.046 8.729-19.119 8.818a1.49 1.49 0 0 1-.181.183c-7.582 6.497-7.17 21.789-5.732 29.786.836 4.658-.514 8.418-3.705 10.315-.876.519-1.78.989-2.707 1.407a11.69 11.69 0 0 0 9.183 2.671 1.563 1.563 0 0 1 .76 3.032 10.01 10.01 0 0 1-2.244.221 16.527 16.527 0 0 1-11.744-5.314 1.562 1.562 0 0 1 .611-2.587 26.846 26.846 0 0 0 4.542-2.105c2.751-1.635 2.577-5.136 2.229-7.077-.429-2.382-3.859-23.464 6.678-32.64A29.87 29.87 0 0 1 44.5.613a29.87 29.87 0 0 1 21.429 9.839 21.646 21.646 0 0 1 6.391 11.682 1.565 1.565 0 0 1-1.16 1.876z"/></svg><svg viewBox="0 0 91 91" id="ic_education8" xmlns="http://www.w3.org/2000/svg"><path fill-rule="evenodd" d="M45.5 90.369C20.72 90.369.631 70.28.631 45.5S20.72.631 45.5.631C70.269.66 90.34 20.731 90.369 45.5c0 24.78-20.089 44.869-44.869 44.869zm0-86.746C22.372 3.623 3.623 22.372 3.623 45.5c0 23.128 18.749 41.877 41.877 41.877 23.118-.026 41.851-18.76 41.877-41.877 0-23.128-18.749-41.877-41.877-41.877zm21.116 63.066a1.497 1.497 0 0 1-2.113-2.12c9.915-9.88 10.604-25.709 1.587-36.414a1.497 1.497 0 0 1 .179-2.107l.007-.005a1.494 1.494 0 0 1 2.107.185c10.019 11.895 9.251 29.484-1.767 40.461zM60.694 44.49l1.081 24.142a4.674 4.674 0 0 1-1.527 3.914 5.224 5.224 0 0 1-7.38-.331 4.739 4.739 0 0 1-1.197-3.683l1.076-24.039a7.733 7.733 0 0 1-3.985-5.391 17.75 17.75 0 0 1 .495-8.227l.96-3.16a6.864 6.864 0 0 1 13 0l.96 3.16a17.75 17.75 0 0 1 .496 8.227 7.735 7.735 0 0 1-3.979 5.388zm.621-12.738l-.961-3.162a3.878 3.878 0 0 0-7.274 0l-.96 3.162a14.743 14.743 0 0 0-.412 6.829 4.74 4.74 0 0 0 3.104 3.573c.606.228.997.82.968 1.468L54.652 68.77a1.796 1.796 0 0 0 .439 1.454 2.31 2.31 0 0 0 3.251 0c.339-.366.502-.86.449-1.355l-1.136-25.247a1.495 1.495 0 0 1 .968-1.468 4.741 4.741 0 0 0 3.103-3.573 14.782 14.782 0 0 0-.411-6.829zm-9.463-12.421a27.173 27.173 0 0 0-15.854.972 1.483 1.483 0 0 1-.523.097 1.494 1.494 0 0 1-.525-2.895 30.173 30.173 0 0 1 17.605-1.081 1.495 1.495 0 1 1-.703 2.907zm-16.382 1.07l.005-.001.003.001h-.008zm-.439 16.125V24.561a1.495 1.495 0 1 1 2.991 0v11.965a1.496 1.496 0 0 1-2.991 0zm-2.248 33.755l.013.013a2.106 2.106 0 0 0 2.978-.013c.392-.408.597-.96.565-1.524l-1.308-26.174a1.497 1.497 0 0 1 .438-1.132l4.049-4.049V24.561a1.495 1.495 0 1 1 2.991 0v13.461c0 .397-.158.777-.438 1.057l-4.018 4.019 1.276 25.514a5.052 5.052 0 1 1-10.092 0l1.275-25.514-4.017-4.019a1.497 1.497 0 0 1-.438-1.057V24.561a1.495 1.495 0 0 1 2.991 0v12.841l4.05 4.049c.299.299.458.71.437 1.132l-1.318 26.174a2.039 2.039 0 0 0 .566 1.524zm-.743-32.259c-.827 0-1.496-.67-1.496-1.496V24.561a1.495 1.495 0 1 1 2.991 0v11.965c0 .826-.67 1.496-1.495 1.496zM18.579 45.5a26.743 26.743 0 0 0 7.85 18.994 1.499 1.499 0 1 1-2.119 2.118C13.934 56.199 12.661 39.79 21.308 27.903l.026-.036a1.495 1.495 0 1 1 2.391 1.797A26.724 26.724 0 0 0 18.579 45.5zm23.752 26.737c2.105.244 4.233.244 6.339 0l-.007.002.058-.007a1.495 1.495 0 1 1 .291 2.977 30.274 30.274 0 0 1-7.03 0 1.497 1.497 0 0 1 .349-2.972z"/></svg></svg>