<svg 
 xmlns="http://www.w3.org/2000/svg"
 xmlns:xlink="http://www.w3.org/1999/xlink"
 width="38px" height="36px">
<path fill-rule="evenodd"  fill="rgb(255, 255, 255)"
 d="M27.015,35.588 C22.654,35.588 18.899,32.982 17.199,29.250 L1.284,29.250 C0.575,29.250 -0.000,28.675 -0.000,27.965 L-0.000,3.855 C-0.000,3.145 0.575,2.570 1.284,2.570 L4.581,2.570 L4.581,1.285 C4.581,0.575 5.156,0.000 5.865,0.000 C6.575,0.000 7.150,0.575 7.150,1.285 L7.150,2.570 L26.544,2.570 L26.544,1.285 C26.544,0.575 27.119,0.000 27.828,0.000 C28.537,0.000 29.112,0.575 29.112,1.285 L29.112,2.570 L32.409,2.570 C33.118,2.570 33.693,3.145 33.693,3.855 L33.693,16.337 C36.192,18.316 37.803,21.369 37.803,24.797 C37.803,30.747 32.963,35.588 27.015,35.588 ZM31.124,5.139 L29.112,5.139 L29.112,5.910 C29.112,6.620 28.537,7.195 27.828,7.195 C27.119,7.195 26.544,6.620 26.544,5.910 L26.544,5.139 L7.150,5.139 L7.150,5.910 C7.150,6.620 6.575,7.195 5.865,7.195 C5.156,7.195 4.581,6.620 4.581,5.910 L4.581,5.139 L2.569,5.139 L2.569,26.681 L16.401,26.681 C16.293,26.068 16.226,25.440 16.226,24.797 C16.226,22.274 17.102,19.957 18.557,18.117 C18.118,17.913 17.810,17.475 17.810,16.959 C17.810,16.250 18.385,15.674 19.094,15.674 L20.593,15.674 C20.774,15.674 20.945,15.713 21.101,15.781 C22.801,14.661 24.831,14.004 27.015,14.004 C28.470,14.004 29.857,14.298 31.124,14.822 L31.124,5.139 ZM27.015,16.574 C22.482,16.574 18.795,20.262 18.795,24.796 C18.795,29.330 22.482,33.019 27.015,33.019 C31.547,33.019 35.235,29.330 35.235,24.796 C35.235,20.262 31.547,16.574 27.015,16.574 ZM30.525,26.852 L26.544,26.852 C25.834,26.852 25.259,26.277 25.259,25.567 L25.259,20.299 C25.259,19.590 25.834,19.015 26.544,19.015 C27.253,19.015 27.828,19.590 27.828,20.299 L27.828,24.283 L30.525,24.283 C31.235,24.283 31.810,24.857 31.810,25.567 C31.810,26.277 31.235,26.852 30.525,26.852 ZM25.088,13.233 C24.379,13.233 23.804,12.658 23.804,11.948 C23.804,11.239 24.379,10.664 25.088,10.664 L26.587,10.664 C27.296,10.664 27.871,11.239 27.871,11.948 C27.871,12.658 27.296,13.233 26.587,13.233 L25.088,13.233 ZM20.593,13.233 L19.094,13.233 C18.385,13.233 17.810,12.658 17.810,11.948 C17.810,11.239 18.385,10.664 19.094,10.664 L20.593,10.664 C21.302,10.664 21.877,11.239 21.877,11.948 C21.877,12.658 21.302,13.233 20.593,13.233 ZM14.599,23.212 L13.101,23.212 C12.391,23.212 11.816,22.636 11.816,21.927 C11.816,21.217 12.391,20.642 13.101,20.642 L14.599,20.642 C15.308,20.642 15.883,21.217 15.883,21.927 C15.883,22.636 15.308,23.212 14.599,23.212 ZM14.599,18.244 L13.101,18.244 C12.391,18.244 11.816,17.669 11.816,16.959 C11.816,16.250 12.391,15.674 13.101,15.674 L14.599,15.674 C15.308,15.674 15.883,16.250 15.883,16.959 C15.883,17.669 15.308,18.244 14.599,18.244 ZM14.599,13.233 L13.101,13.233 C12.391,13.233 11.816,12.658 11.816,11.948 C11.816,11.239 12.391,10.664 13.101,10.664 L14.599,10.664 C15.308,10.664 15.883,11.239 15.883,11.948 C15.883,12.658 15.308,13.233 14.599,13.233 ZM8.605,23.212 L7.107,23.212 C6.397,23.212 5.822,22.636 5.822,21.927 C5.822,21.217 6.397,20.642 7.107,20.642 L8.605,20.642 C9.315,20.642 9.890,21.217 9.890,21.927 C9.890,22.636 9.315,23.212 8.605,23.212 ZM8.605,18.244 L7.107,18.244 C6.397,18.244 5.822,17.669 5.822,16.959 C5.822,16.250 6.397,15.674 7.107,15.674 L8.605,15.674 C9.315,15.674 9.890,16.250 9.890,16.959 C9.890,17.669 9.315,18.244 8.605,18.244 ZM8.605,13.233 L7.107,13.233 C6.397,13.233 5.822,12.658 5.822,11.948 C5.822,11.239 6.397,10.664 7.107,10.664 L8.605,10.664 C9.315,10.664 9.890,11.239 9.890,11.948 C9.890,12.658 9.315,13.233 8.605,13.233 Z"/>
</svg>