<svg 
 xmlns="http://www.w3.org/2000/svg"
 xmlns:xlink="http://www.w3.org/1999/xlink"
 width="32px" height="37px">
<path fill-rule="evenodd"  fill="rgb(255, 255, 255)"
 d="M31.595,6.770 L31.593,33.850 C31.593,35.094 30.580,36.107 29.336,36.107 L6.770,36.108 L6.770,33.852 L29.338,33.852 L29.338,6.770 L31.595,6.770 ZM24.825,31.595 L2.257,31.595 C1.013,31.595 -0.000,30.582 -0.000,29.338 L-0.000,10.155 C-0.000,9.856 0.119,9.569 0.330,9.358 L9.358,0.331 C9.569,0.119 9.856,-0.000 10.156,-0.000 L24.825,-0.000 C26.069,-0.000 27.081,1.013 27.081,2.257 L27.081,29.338 C27.081,30.583 26.069,31.595 24.825,31.595 ZM9.028,3.852 L3.852,9.028 L9.029,9.029 L9.028,3.852 ZM24.825,2.257 L11.284,2.257 L11.284,9.029 C11.285,9.631 11.052,10.199 10.626,10.626 C10.200,11.052 9.633,11.286 9.032,11.286 C9.031,11.286 9.027,11.284 9.027,11.284 L2.257,11.284 L2.257,29.338 L24.825,29.338 L24.825,2.257 Z"/>
</svg>