<svg 
 xmlns="http://www.w3.org/2000/svg"
 xmlns:xlink="http://www.w3.org/1999/xlink"
 width="39px" height="39px">
<path fill-rule="evenodd"  fill="rgb(255, 255, 255)"
 d="M37.737,38.872 L1.263,38.872 C0.636,38.872 0.128,38.364 0.128,37.737 L0.128,36.602 C0.128,34.040 1.550,31.804 3.645,30.642 C2.873,29.828 2.398,28.729 2.398,27.521 L1.263,27.521 C0.636,27.521 0.128,27.013 0.128,26.386 C0.128,22.116 2.761,18.450 6.489,16.926 C5.370,15.889 4.668,14.408 4.668,12.765 C4.668,9.636 7.214,7.090 10.344,7.090 C13.473,7.090 16.019,9.636 16.019,12.765 C16.019,14.407 15.318,15.886 14.200,16.923 C16.873,18.012 19.013,20.205 19.991,23.017 C22.228,23.298 23.965,25.210 23.965,27.521 C23.965,28.729 23.490,29.828 22.717,30.642 C24.026,31.368 25.071,32.512 25.672,33.892 C26.016,33.115 26.509,32.398 27.140,31.779 C27.606,31.321 28.126,30.938 28.684,30.633 C27.917,29.820 27.446,28.725 27.446,27.521 C27.446,25.018 29.482,22.981 31.986,22.981 C33.197,22.981 34.346,23.449 35.222,24.299 C36.112,25.162 36.602,26.306 36.602,27.521 C36.602,28.692 36.146,29.797 35.316,30.649 C35.863,30.951 36.374,31.329 36.832,31.779 C38.148,33.071 38.872,34.784 38.872,36.602 L38.872,37.737 C38.872,38.364 38.364,38.872 37.737,38.872 ZM13.181,33.882 C13.783,32.506 14.826,31.366 16.131,30.642 C15.359,29.828 14.884,28.729 14.884,27.521 L11.479,27.521 C11.479,28.729 11.003,29.828 10.231,30.642 C11.536,31.366 12.580,32.506 13.181,33.882 ZM2.398,36.602 L11.479,36.602 C11.479,34.099 9.442,32.061 6.938,32.061 C4.435,32.061 2.398,34.099 2.398,36.602 ZM9.208,27.521 C9.208,26.270 8.190,25.251 6.938,25.251 C5.686,25.251 4.668,26.270 4.668,27.521 C4.668,28.773 5.686,29.792 6.938,29.792 C8.190,29.792 9.208,28.773 9.208,27.521 ZM10.344,9.360 C8.466,9.360 6.938,10.888 6.938,12.765 C6.938,14.643 8.466,16.170 10.344,16.170 C12.221,16.170 13.749,14.643 13.749,12.765 C13.749,10.888 12.221,9.360 10.344,9.360 ZM10.344,18.441 C6.348,18.441 3.031,21.405 2.479,25.251 L3.009,25.251 C3.795,23.895 5.262,22.981 6.938,22.981 C8.615,22.981 10.082,23.895 10.868,25.251 L15.495,25.251 C15.991,24.395 16.759,23.715 17.680,23.330 C16.464,20.403 13.591,18.441 10.344,18.441 ZM19.424,25.251 C18.173,25.251 17.154,26.270 17.154,27.521 C17.154,28.773 18.173,29.792 19.424,29.792 C20.676,29.792 21.694,28.773 21.694,27.521 C21.694,26.270 20.676,25.251 19.424,25.251 ZM19.424,32.061 C16.921,32.061 14.884,34.099 14.884,36.602 L23.965,36.602 C23.965,34.099 21.928,32.061 19.424,32.061 ZM31.986,25.251 C30.734,25.251 29.716,26.270 29.716,27.521 C29.716,28.773 30.734,29.792 31.986,29.792 C33.258,29.792 34.332,28.752 34.332,27.521 C34.332,26.291 33.258,25.251 31.986,25.251 ZM31.986,32.061 C29.441,32.061 27.370,34.099 27.370,36.602 L36.602,36.602 C36.602,34.099 34.532,32.061 31.986,32.061 ZM35.467,18.441 L21.694,18.441 C19.817,18.441 18.289,16.913 18.289,15.035 L18.289,3.609 C18.289,2.704 18.637,1.842 19.269,1.181 C19.918,0.502 20.780,0.128 21.694,0.128 L35.467,0.128 C36.382,0.128 37.243,0.502 37.893,1.181 C38.524,1.842 38.872,2.704 38.872,3.609 L38.872,15.035 C38.872,16.913 37.345,18.441 35.467,18.441 ZM36.602,3.609 C36.602,2.964 36.072,2.398 35.467,2.398 L21.694,2.398 C21.090,2.398 20.559,2.964 20.559,3.609 L20.559,15.035 C20.559,15.661 21.069,16.170 21.694,16.170 L35.467,16.170 C36.093,16.170 36.602,15.661 36.602,15.035 L36.602,3.609 ZM33.121,13.900 C32.494,13.900 31.986,13.392 31.986,12.765 L31.986,5.955 C31.986,5.327 32.494,4.820 33.121,4.820 C33.748,4.820 34.256,5.327 34.256,5.955 L34.256,12.765 C34.256,13.392 33.748,13.900 33.121,13.900 ZM28.581,13.900 C27.954,13.900 27.446,13.392 27.446,12.765 L27.446,8.225 C27.446,7.598 27.954,7.090 28.581,7.090 C29.208,7.090 29.716,7.598 29.716,8.225 L29.716,12.765 C29.716,13.392 29.208,13.900 28.581,13.900 ZM23.965,13.900 C23.338,13.900 22.830,13.392 22.830,12.765 L22.830,10.495 C22.830,9.868 23.338,9.360 23.965,9.360 C24.592,9.360 25.100,9.868 25.100,10.495 L25.100,12.765 C25.100,13.392 24.592,13.900 23.965,13.900 Z"/>
</svg>