<svg 
 xmlns="http://www.w3.org/2000/svg"
 xmlns:xlink="http://www.w3.org/1999/xlink"
 width="30px" height="38px">
<path fill-rule="evenodd"  fill="rgb(255, 255, 255)"
 d="M26.698,35.162 L26.698,36.547 C26.698,37.194 26.174,37.717 25.528,37.717 L4.472,37.717 C2.536,37.717 0.962,36.143 0.962,34.208 L0.962,3.792 C0.962,1.857 2.536,0.283 4.472,0.283 L25.528,0.283 C27.463,0.283 29.038,1.857 29.038,3.792 L29.038,31.868 C29.038,33.391 28.057,34.677 26.698,35.162 ZM26.698,3.792 C26.698,3.147 26.174,2.622 25.528,2.622 L4.472,2.622 C3.826,2.622 3.302,3.147 3.302,3.792 L3.302,33.038 L25.528,33.038 C26.174,33.038 26.698,32.513 26.698,31.868 L26.698,3.792 ZM21.648,14.780 L21.519,14.887 L22.813,14.725 C22.880,14.717 22.947,14.733 23.003,14.770 C23.132,14.856 23.167,15.030 23.081,15.159 C22.685,15.755 22.110,16.211 21.439,16.462 L21.241,16.536 L22.598,16.687 C22.685,16.696 22.763,16.746 22.808,16.821 C22.887,16.954 22.844,17.126 22.711,17.205 L22.220,17.500 C21.632,17.854 20.986,18.101 20.312,18.230 C20.741,18.525 21.110,18.899 21.399,19.332 C21.430,19.378 21.446,19.432 21.446,19.488 C21.446,19.642 21.321,19.768 21.166,19.768 L21.055,19.768 C20.511,19.768 19.974,19.646 19.484,19.409 L19.484,20.048 C19.484,20.122 19.455,20.194 19.402,20.246 C19.293,20.356 19.116,20.356 19.006,20.246 L18.363,19.603 L18.001,19.966 C17.988,19.979 17.974,19.991 17.958,20.001 C17.830,20.087 17.656,20.052 17.570,19.923 L17.320,19.549 C17.233,19.419 17.108,19.318 16.962,19.260 L16.962,19.303 C16.962,19.526 17.051,19.739 17.208,19.898 L17.407,20.096 C17.841,20.529 18.085,21.117 18.083,21.730 C18.083,21.872 17.976,21.991 17.835,22.008 L17.996,22.330 L18.373,22.425 C18.433,21.972 18.762,21.600 19.204,21.485 L19.204,21.169 C19.204,21.014 19.330,20.889 19.484,20.889 C19.639,20.889 19.765,21.014 19.765,21.169 L19.765,21.485 C20.097,21.571 20.371,21.803 20.510,22.117 C20.760,22.683 20.505,23.345 19.938,23.596 C19.372,23.846 18.710,23.591 18.459,23.024 L17.735,22.843 C17.655,22.823 17.589,22.769 17.552,22.696 L17.209,22.010 L16.962,22.010 C16.856,22.010 16.759,21.950 16.711,21.855 C16.594,21.620 16.421,21.418 16.207,21.266 L16.127,21.385 L16.788,22.542 C17.085,23.063 17.242,23.652 17.242,24.252 C17.242,25.370 15.585,25.653 15.000,25.653 C14.415,25.653 12.758,25.377 12.758,24.252 C12.758,23.740 12.915,23.063 13.212,22.542 L13.873,21.385 L13.793,21.266 C13.579,21.418 13.406,21.620 13.289,21.855 C13.241,21.950 13.144,22.010 13.038,22.010 L12.791,22.010 L12.448,22.696 C12.412,22.769 12.345,22.823 12.265,22.843 L12.079,22.890 L12.125,22.941 C12.229,23.056 12.220,23.233 12.105,23.337 C11.990,23.440 11.813,23.431 11.709,23.316 L11.463,23.043 L11.144,23.123 C10.994,23.161 10.842,23.069 10.804,22.919 C10.767,22.769 10.858,22.616 11.008,22.579 L11.040,22.571 L10.498,21.965 C10.411,21.995 10.321,22.010 10.229,22.010 C10.193,22.010 10.156,22.008 10.120,22.003 C9.999,21.988 9.884,21.946 9.781,21.881 C9.388,21.634 9.270,21.115 9.518,20.723 C9.765,20.330 10.283,20.212 10.676,20.459 C11.069,20.706 11.187,21.225 10.939,21.618 L11.654,22.417 L12.004,22.330 L12.165,22.008 C12.024,21.991 11.917,21.872 11.917,21.730 C11.915,21.117 12.159,20.529 12.593,20.096 L12.792,19.898 C12.949,19.739 13.038,19.526 13.038,19.303 L13.038,19.260 C12.892,19.318 12.767,19.419 12.680,19.549 L12.430,19.923 C12.420,19.939 12.409,19.953 12.396,19.966 C12.286,20.075 12.109,20.075 11.999,19.966 L11.637,19.604 L10.994,20.246 C10.942,20.299 10.870,20.328 10.796,20.328 C10.641,20.328 10.516,20.203 10.516,20.048 L10.516,19.409 C10.026,19.646 9.489,19.768 8.945,19.768 L8.834,19.768 C8.779,19.768 8.724,19.752 8.678,19.721 C8.550,19.635 8.515,19.461 8.601,19.332 C8.890,18.899 9.259,18.525 9.688,18.230 C9.014,18.101 8.368,17.854 7.780,17.500 L7.289,17.205 C7.214,17.160 7.164,17.082 7.154,16.996 C7.137,16.842 7.248,16.703 7.402,16.686 L8.759,16.536 L8.561,16.461 C7.890,16.211 7.315,15.755 6.919,15.158 C6.882,15.102 6.866,15.035 6.874,14.968 C6.894,14.815 7.034,14.706 7.187,14.725 L8.481,14.886 L8.352,14.780 C7.779,14.301 7.339,13.682 7.076,12.982 L6.610,11.739 C6.575,11.645 6.592,11.539 6.656,11.462 C6.754,11.342 6.931,11.325 7.050,11.423 L11.542,15.122 C11.793,15.329 11.901,15.662 11.822,15.977 C11.797,16.075 11.769,16.185 11.741,16.289 C11.700,16.450 11.765,16.620 11.903,16.712 L11.914,16.719 C12.062,16.818 12.258,16.802 12.388,16.681 L13.056,15.731 L13.216,14.930 C13.272,14.656 13.215,14.370 13.059,14.138 C12.929,13.943 12.738,13.798 12.516,13.723 C12.326,13.659 12.119,13.674 11.940,13.764 L11.202,14.133 C11.142,14.162 11.074,14.170 11.009,14.154 C10.859,14.117 10.767,13.964 10.805,13.814 L10.985,13.095 C11.043,12.861 11.172,12.650 11.354,12.492 L11.130,11.379 C11.075,11.100 11.235,10.825 11.504,10.735 L11.879,10.609 L11.882,10.608 C11.894,10.605 11.906,10.602 11.917,10.598 L11.917,10.239 C11.917,10.084 12.043,9.959 12.198,9.959 C12.352,9.959 12.478,10.084 12.478,10.239 L12.478,10.598 C12.489,10.602 12.501,10.604 12.513,10.608 L12.516,10.609 L12.892,10.735 C13.160,10.825 13.320,11.101 13.265,11.378 L13.085,12.276 C13.225,12.310 13.362,12.355 13.495,12.411 L13.850,11.879 L13.500,10.829 C13.360,10.406 13.572,9.948 13.985,9.782 L14.720,9.488 L14.720,9.118 C14.720,8.963 14.846,8.837 15.001,8.837 C15.155,8.837 15.281,8.963 15.281,9.118 L15.281,9.488 L16.015,9.782 C16.428,9.948 16.641,10.406 16.501,10.829 L16.151,11.879 L16.506,12.411 C16.638,12.355 16.775,12.310 16.916,12.276 L16.735,11.379 C16.680,11.100 16.840,10.825 17.109,10.735 L17.484,10.609 L17.488,10.608 C17.499,10.605 17.511,10.602 17.523,10.598 L17.523,10.239 C17.523,10.084 17.648,9.959 17.803,9.959 C17.958,9.959 18.083,10.084 18.083,10.239 L18.083,10.598 C18.095,10.602 18.107,10.605 18.118,10.608 L18.122,10.609 L18.497,10.735 C18.766,10.825 18.926,11.101 18.871,11.378 L18.647,12.492 C18.829,12.650 18.957,12.861 19.016,13.095 L19.196,13.814 C19.212,13.879 19.204,13.948 19.174,14.007 C19.105,14.146 18.937,14.202 18.798,14.133 L18.061,13.764 C17.882,13.674 17.675,13.659 17.485,13.723 C17.263,13.798 17.071,13.943 16.941,14.139 C16.785,14.370 16.729,14.656 16.785,14.930 L16.945,15.731 L17.612,16.681 C17.742,16.802 17.938,16.818 18.086,16.720 L18.097,16.712 C18.236,16.620 18.301,16.450 18.259,16.289 C18.232,16.185 18.204,16.075 18.179,15.977 C18.099,15.662 18.208,15.330 18.458,15.122 L22.950,11.423 C23.027,11.360 23.132,11.342 23.226,11.377 C23.371,11.432 23.445,11.593 23.390,11.739 L22.924,12.983 C22.661,13.682 22.221,14.301 21.648,14.780 ZM15.691,12.200 L14.309,12.200 L13.986,12.685 C14.471,13.027 14.827,13.520 15.000,14.087 C15.173,13.520 15.529,13.026 16.013,12.685 L15.691,12.200 ZM16.401,16.124 L13.599,16.124 L13.599,19.364 C13.599,19.485 13.676,19.592 13.790,19.630 L15.000,20.033 L16.210,19.630 C16.324,19.592 16.401,19.485 16.401,19.364 L16.401,16.124 Z"/>
</svg>