<svg 
 xmlns="http://www.w3.org/2000/svg"
 xmlns:xlink="http://www.w3.org/1999/xlink"
 width="28px" height="37px">
<path fill-rule="evenodd"  fill="rgb(255, 255, 255)"
 d="M25.587,34.335 L25.587,35.691 C25.587,36.324 25.073,36.836 24.442,36.836 L3.836,36.836 C1.942,36.836 0.401,35.296 0.401,33.402 L0.401,3.637 C0.401,1.744 1.942,0.203 3.836,0.203 L24.442,0.203 C26.335,0.203 27.876,1.744 27.876,3.637 L27.876,31.112 C27.876,32.603 26.916,33.861 25.587,34.335 ZM25.587,3.637 C25.587,3.006 25.073,2.493 24.442,2.493 L3.836,2.493 C3.204,2.493 2.691,3.006 2.691,3.637 L2.691,32.257 L24.442,32.257 C25.074,32.257 25.587,31.744 25.587,31.112 L25.587,3.637 ZM20.644,14.389 L20.518,14.494 L21.784,14.336 C21.850,14.328 21.916,14.344 21.971,14.380 C22.097,14.464 22.131,14.634 22.047,14.760 C21.659,15.344 21.097,15.791 20.440,16.035 L20.246,16.108 L21.574,16.256 C21.659,16.265 21.735,16.314 21.779,16.387 C21.857,16.517 21.815,16.686 21.685,16.763 L21.204,17.052 C20.629,17.398 19.997,17.640 19.337,17.766 C19.757,18.055 20.118,18.421 20.401,18.845 C20.431,18.890 20.447,18.942 20.447,18.997 C20.447,19.148 20.324,19.271 20.173,19.271 L20.065,19.271 C19.532,19.271 19.007,19.151 18.527,18.920 L18.527,19.545 C18.527,19.618 18.498,19.688 18.447,19.739 C18.340,19.846 18.166,19.846 18.059,19.739 L17.430,19.110 L17.076,19.465 C17.063,19.478 17.049,19.489 17.034,19.499 C16.908,19.583 16.737,19.549 16.653,19.423 L16.409,19.057 C16.324,18.929 16.202,18.830 16.059,18.774 L16.059,18.816 C16.059,19.034 16.146,19.243 16.299,19.398 L16.494,19.593 C16.919,20.016 17.158,20.591 17.156,21.191 C17.156,21.330 17.051,21.447 16.913,21.463 L17.070,21.778 L17.440,21.871 C17.499,21.427 17.820,21.064 18.253,20.951 L18.253,20.642 C18.253,20.491 18.376,20.368 18.527,20.368 C18.679,20.368 18.801,20.491 18.801,20.642 L18.801,20.951 C19.126,21.035 19.395,21.263 19.531,21.569 C19.776,22.124 19.526,22.772 18.971,23.017 C18.417,23.262 17.769,23.012 17.524,22.458 L16.815,22.280 C16.737,22.260 16.672,22.208 16.636,22.136 L16.301,21.465 L16.059,21.465 C15.955,21.465 15.860,21.406 15.813,21.313 C15.699,21.083 15.529,20.885 15.320,20.737 L15.242,20.854 L15.889,21.986 C16.180,22.496 16.333,23.072 16.333,23.659 C16.333,24.753 14.712,25.030 14.139,25.030 C13.567,25.030 11.945,24.760 11.945,23.659 C11.945,23.158 12.098,22.496 12.389,21.986 L13.036,20.854 L12.958,20.737 C12.748,20.885 12.579,21.083 12.464,21.313 C12.418,21.406 12.323,21.465 12.219,21.465 L11.977,21.465 L11.642,22.136 C11.606,22.208 11.540,22.260 11.463,22.280 L11.280,22.325 L11.326,22.376 C11.427,22.488 11.418,22.662 11.306,22.763 C11.193,22.865 11.020,22.856 10.918,22.743 L10.678,22.476 L10.366,22.554 C10.219,22.591 10.070,22.501 10.033,22.355 C9.996,22.207 10.086,22.059 10.233,22.022 L10.263,22.014 L9.733,21.421 C9.648,21.450 9.560,21.465 9.470,21.465 C9.434,21.465 9.399,21.463 9.363,21.458 C9.245,21.443 9.132,21.402 9.031,21.339 C8.647,21.097 8.532,20.590 8.774,20.205 C9.016,19.821 9.523,19.705 9.907,19.948 C10.292,20.189 10.407,20.697 10.165,21.081 L10.865,21.864 L11.207,21.778 L11.365,21.463 C11.226,21.447 11.122,21.330 11.122,21.191 C11.120,20.591 11.358,20.016 11.784,19.593 L11.978,19.398 C12.132,19.243 12.219,19.034 12.219,18.816 L12.219,18.774 C12.076,18.830 11.954,18.929 11.869,19.057 L11.624,19.423 C11.614,19.438 11.603,19.452 11.590,19.465 C11.483,19.572 11.309,19.572 11.202,19.465 L10.848,19.111 L10.219,19.739 C10.167,19.791 10.098,19.819 10.025,19.819 C9.873,19.819 9.751,19.697 9.751,19.545 L9.751,18.920 C9.271,19.152 8.746,19.271 8.213,19.271 L8.105,19.271 C8.051,19.271 7.998,19.255 7.952,19.225 C7.826,19.141 7.793,18.970 7.877,18.845 C8.159,18.421 8.520,18.055 8.940,17.766 C8.281,17.640 7.649,17.398 7.073,17.052 L6.592,16.763 C6.519,16.719 6.470,16.643 6.461,16.558 C6.444,16.408 6.553,16.272 6.703,16.255 L8.032,16.108 L7.837,16.035 C7.181,15.790 6.619,15.344 6.231,14.760 C6.195,14.706 6.179,14.639 6.187,14.574 C6.206,14.424 6.343,14.317 6.493,14.336 L7.759,14.494 L7.633,14.389 C7.072,13.921 6.642,13.315 6.385,12.631 L5.928,11.413 C5.894,11.321 5.911,11.218 5.973,11.142 C6.070,11.026 6.243,11.009 6.359,11.105 L10.755,14.725 C11.000,14.927 11.106,15.253 11.029,15.561 C11.004,15.658 10.977,15.764 10.950,15.867 C10.909,16.024 10.973,16.190 11.109,16.281 L11.119,16.288 C11.264,16.384 11.456,16.369 11.583,16.250 L12.236,15.321 L12.393,14.536 C12.447,14.268 12.392,13.989 12.240,13.761 C12.112,13.571 11.925,13.428 11.708,13.355 C11.522,13.293 11.319,13.307 11.144,13.395 L10.422,13.757 C10.364,13.786 10.297,13.793 10.233,13.777 C10.086,13.740 9.997,13.592 10.034,13.445 L10.210,12.741 C10.267,12.512 10.393,12.306 10.571,12.151 L10.352,11.061 C10.298,10.789 10.454,10.519 10.718,10.431 L11.084,10.309 L11.088,10.307 C11.099,10.304 11.111,10.301 11.122,10.298 L11.122,9.946 C11.122,9.794 11.245,9.672 11.396,9.672 C11.548,9.672 11.671,9.794 11.671,9.946 L11.671,10.298 C11.682,10.301 11.694,10.303 11.705,10.307 L11.708,10.309 L12.076,10.432 C12.339,10.520 12.495,10.789 12.441,11.061 L12.265,11.939 C12.402,11.972 12.536,12.017 12.666,12.072 L13.014,11.550 L12.671,10.523 C12.534,10.110 12.742,9.661 13.146,9.499 L13.865,9.212 L13.865,8.849 C13.865,8.697 13.988,8.574 14.139,8.574 C14.291,8.574 14.414,8.697 14.414,8.849 L14.414,9.212 L15.132,9.499 C15.537,9.661 15.745,10.110 15.607,10.523 L15.265,11.550 L15.612,12.072 C15.742,12.017 15.876,11.972 16.013,11.939 L15.837,11.061 C15.783,10.789 15.940,10.519 16.203,10.431 L16.570,10.309 L16.573,10.307 C16.585,10.304 16.596,10.301 16.608,10.298 L16.608,9.946 C16.608,9.794 16.730,9.672 16.882,9.672 C17.033,9.672 17.156,9.794 17.156,9.946 L17.156,10.298 C17.167,10.301 17.179,10.304 17.190,10.307 L17.194,10.309 L17.561,10.432 C17.824,10.520 17.980,10.789 17.927,11.061 L17.708,12.151 C17.885,12.306 18.011,12.512 18.069,12.741 L18.245,13.445 C18.261,13.508 18.253,13.575 18.224,13.634 C18.156,13.769 17.991,13.824 17.856,13.757 L17.134,13.396 C16.959,13.307 16.756,13.293 16.571,13.355 C16.353,13.428 16.166,13.571 16.038,13.762 C15.886,13.989 15.831,14.268 15.885,14.537 L16.042,15.321 L16.695,16.250 C16.822,16.369 17.014,16.384 17.159,16.288 L17.170,16.281 C17.306,16.190 17.369,16.024 17.328,15.867 C17.302,15.765 17.274,15.658 17.249,15.561 C17.172,15.253 17.278,14.927 17.523,14.725 L21.918,11.105 C21.994,11.043 22.097,11.026 22.189,11.060 C22.331,11.113 22.403,11.271 22.349,11.413 L21.893,12.631 C21.636,13.315 21.206,13.921 20.644,14.389 ZM14.815,11.865 L13.463,11.865 L13.147,12.339 C13.621,12.674 13.970,13.157 14.139,13.712 C14.308,13.157 14.657,12.674 15.131,12.339 L14.815,11.865 ZM15.510,15.706 L12.768,15.706 L12.768,18.876 C12.767,18.994 12.843,19.099 12.955,19.136 L14.139,19.531 L15.323,19.136 C15.435,19.099 15.510,18.994 15.510,18.876 L15.510,15.706 Z"/>
</svg>