<svg 
 xmlns="http://www.w3.org/2000/svg"
 xmlns:xlink="http://www.w3.org/1999/xlink"
 width="14px" height="18px">
<path fill-rule="evenodd"  fill="rgb(255, 255, 255)"
 d="M7.206,0.053 C3.477,0.053 0.442,3.090 0.442,6.823 C0.442,7.944 0.722,9.055 1.254,10.041 L6.836,17.003 C6.910,17.137 7.052,17.221 7.206,17.221 C7.360,17.221 7.501,17.137 7.576,17.003 L13.159,10.037 C13.689,9.055 13.969,7.944 13.969,6.823 C13.969,3.090 10.935,0.053 7.206,0.053 ZM7.206,10.208 C5.341,10.208 3.824,8.690 3.824,6.823 C3.824,4.957 5.341,3.438 7.206,3.438 C9.071,3.438 10.588,4.957 10.588,6.823 C10.588,8.690 9.071,10.208 7.206,10.208 Z"/>
</svg>