<svg 
 xmlns="http://www.w3.org/2000/svg"
 xmlns:xlink="http://www.w3.org/1999/xlink"
 width="27px" height="36px">
<path fill-rule="evenodd"  fill="rgb(255, 255, 255)"
 d="M0.199,33.361 L0.199,2.256 C0.199,1.028 1.198,0.029 2.426,0.029 L16.900,0.029 C17.196,0.029 17.478,0.146 17.687,0.355 L26.594,9.262 C26.803,9.471 26.920,9.754 26.920,10.050 L26.920,33.361 C26.920,34.589 25.921,35.588 24.694,35.588 L2.426,35.588 C1.198,35.588 0.199,34.589 0.199,33.361 L0.199,33.361 ZM18.011,8.938 L23.120,8.937 L18.012,3.830 L18.011,8.938 ZM24.694,11.163 L18.013,11.163 C18.013,11.163 18.010,11.165 18.009,11.165 C17.415,11.165 16.856,10.933 16.436,10.514 C16.015,10.092 15.785,9.532 15.786,8.938 L15.786,2.256 L2.426,2.256 L2.426,33.361 L24.694,33.361 C24.694,33.361 24.694,11.163 24.694,11.163 L24.694,11.163 Z"/>
</svg>