<svg 
 xmlns="http://www.w3.org/2000/svg"
 xmlns:xlink="http://www.w3.org/1999/xlink"
 width="27px" height="20px">
<path fill-rule="evenodd"  fill="rgb(255, 255, 255)"
 d="M25.922,4.364 C25.888,4.310 25.344,3.361 24.250,2.386 C23.168,1.416 21.484,0.407 19.268,0.407 C17.052,0.407 15.385,1.419 14.318,2.395 C13.989,2.695 13.715,2.993 13.486,3.264 C13.253,2.991 12.965,2.691 12.628,2.386 C11.540,1.416 9.858,0.407 7.640,0.407 C5.424,0.407 3.758,1.419 2.692,2.395 C1.622,3.372 1.101,4.325 1.070,4.380 L0.956,4.819 L0.956,19.138 L2.672,19.576 L2.674,19.579 C2.697,19.529 3.162,18.735 4.007,17.993 C4.859,17.245 6.047,16.556 7.640,16.553 C9.281,16.553 10.530,17.292 11.409,18.073 C11.841,18.460 12.180,18.850 12.397,19.141 C12.509,19.288 12.587,19.407 12.640,19.483 C12.664,19.524 12.684,19.555 12.695,19.576 C12.698,19.583 12.704,19.590 12.704,19.593 L12.704,19.593 L12.704,19.593 L12.708,19.593 L14.301,19.578 L14.301,19.578 L14.302,19.575 L14.302,19.572 C14.338,19.506 14.801,18.725 15.632,17.991 C16.489,17.244 17.677,16.554 19.268,16.551 C20.908,16.551 22.155,17.291 23.037,18.071 C23.473,18.459 23.803,18.849 24.022,19.139 C24.135,19.287 24.214,19.406 24.268,19.482 C24.294,19.522 24.310,19.554 24.322,19.574 C24.329,19.582 24.332,19.588 24.332,19.592 L24.333,19.592 L24.333,19.592 L26.044,19.136 L26.044,4.819 L25.922,4.364 ZM7.643,14.429 L7.642,14.429 C5.609,14.429 4.068,15.331 3.063,16.224 L3.063,5.322 C3.241,5.051 3.628,4.514 4.213,3.997 C5.018,3.292 6.139,2.642 7.643,2.642 C9.192,2.642 10.371,3.340 11.200,4.074 C11.608,4.439 11.929,4.812 12.133,5.086 C12.206,5.180 12.265,5.265 12.307,5.330 L12.307,16.266 C11.286,15.360 9.710,14.429 7.643,14.429 ZM23.957,16.295 C22.925,15.384 21.346,14.451 19.270,14.451 C17.230,14.447 15.682,15.356 14.668,16.253 L14.668,5.304 C14.847,5.034 15.237,4.493 15.823,3.974 C16.635,3.266 17.762,2.613 19.270,2.613 C20.825,2.613 22.007,3.314 22.843,4.051 C23.257,4.418 23.570,4.792 23.777,5.068 C23.852,5.161 23.911,5.247 23.956,5.313 L23.956,16.295 L23.957,16.295 Z"/>
</svg>