<svg 
 xmlns="http://www.w3.org/2000/svg"
 xmlns:xlink="http://www.w3.org/1999/xlink"
 width="63px" height="63px">
<path fill-rule="evenodd"  fill="rgb(87, 144, 247)"
 d="M61.431,49.673 L54.706,49.673 C54.291,49.673 53.915,49.432 53.739,49.058 C53.562,48.684 53.619,48.239 53.884,47.922 C57.271,43.845 59.293,37.690 59.293,31.459 C59.293,25.469 57.410,19.762 53.847,14.950 C53.495,14.477 53.595,13.808 54.069,13.456 C54.544,13.104 55.213,13.204 55.565,13.679 C59.403,18.859 61.431,25.007 61.431,31.458 C61.431,37.341 59.738,43.186 56.832,47.535 L61.431,47.535 C62.021,47.535 62.500,48.012 62.500,48.604 C62.500,49.195 62.021,49.673 61.431,49.673 ZM51.810,35.776 L49.359,35.776 C48.716,35.776 48.147,36.182 47.976,36.762 C47.682,37.760 47.299,38.440 46.893,39.161 L46.590,39.707 C46.297,40.244 46.410,40.936 46.864,41.390 L48.599,43.125 C49.016,43.543 49.016,44.219 48.599,44.637 L44.638,48.598 C44.437,48.799 44.165,48.911 43.882,48.911 C43.599,48.911 43.326,48.799 43.126,48.598 L41.391,46.863 C40.937,46.410 40.245,46.297 39.708,46.588 L39.166,46.890 C38.444,47.298 37.762,47.681 36.764,47.975 C36.181,48.146 35.776,48.714 35.776,49.359 L35.776,51.810 C35.776,52.402 35.297,52.879 34.707,52.879 L28.293,52.879 C27.703,52.879 27.224,52.402 27.224,51.810 L27.224,49.359 C27.224,48.714 26.819,48.146 26.238,47.975 C25.239,47.682 24.557,47.298 23.835,46.890 L23.294,46.588 C22.757,46.297 22.064,46.410 21.609,46.863 L19.875,48.598 C19.473,48.999 18.763,48.999 18.363,48.598 L14.402,44.637 C13.984,44.219 13.984,43.543 14.402,43.125 L16.137,41.390 C16.592,40.936 16.704,40.244 16.412,39.707 L16.107,39.161 C15.701,38.440 15.318,37.759 15.024,36.762 C14.853,36.182 14.284,35.776 13.641,35.776 L11.190,35.776 C10.600,35.776 10.121,35.298 10.121,34.707 L10.121,28.293 C10.121,27.702 10.600,27.224 11.190,27.224 L13.641,27.224 C14.284,27.224 14.853,26.818 15.024,26.237 C15.318,25.240 15.702,24.560 16.108,23.838 L16.412,23.294 C16.704,22.757 16.591,22.064 16.137,21.610 L14.402,19.875 C13.985,19.457 13.985,18.781 14.402,18.363 L18.363,14.402 C18.564,14.201 18.836,14.089 19.119,14.089 C19.402,14.089 19.675,14.201 19.875,14.402 L21.610,16.137 C22.064,16.590 22.757,16.702 23.294,16.412 L23.837,16.109 C24.558,15.703 25.239,15.319 26.238,15.025 C26.819,14.854 27.224,14.285 27.224,13.641 L27.224,11.190 C27.224,10.598 27.703,10.121 28.293,10.121 L34.707,10.121 C35.297,10.121 35.776,10.598 35.776,11.190 L35.776,13.641 C35.776,14.285 36.181,14.854 36.763,15.025 C37.760,15.318 38.442,15.703 39.163,16.109 L39.707,16.412 C40.243,16.703 40.936,16.591 41.391,16.137 L43.125,14.402 C43.526,14.001 44.236,14.000 44.637,14.402 L48.598,18.363 C49.016,18.781 49.016,19.457 48.598,19.875 L46.863,21.610 C46.408,22.064 46.296,22.757 46.588,23.294 L46.892,23.838 C47.298,24.560 47.682,25.242 47.975,26.237 C48.147,26.818 48.716,27.224 49.359,27.224 L51.810,27.224 C52.400,27.224 52.879,27.702 52.879,28.293 L52.879,34.707 C52.879,35.298 52.400,35.776 51.810,35.776 ZM50.741,29.362 L49.359,29.362 C47.774,29.362 46.362,28.325 45.925,26.842 C45.700,26.078 45.419,25.579 45.030,24.890 L44.711,24.317 C43.968,22.953 44.231,21.219 45.353,20.100 L46.332,19.120 L43.882,16.670 L42.903,17.650 C41.782,18.769 40.047,19.035 38.683,18.290 L38.114,17.972 C37.423,17.583 36.923,17.302 36.160,17.076 C34.675,16.639 33.638,15.226 33.638,13.641 L33.638,12.259 L29.362,12.259 L29.362,13.641 C29.362,15.226 28.325,16.639 26.841,17.075 C26.077,17.301 25.578,17.582 24.887,17.971 L24.318,18.289 C22.955,19.031 21.220,18.769 20.099,17.648 L19.120,16.669 L16.670,19.119 L17.649,20.099 C18.770,21.218 19.033,22.952 18.290,24.317 L17.971,24.889 C17.582,25.579 17.301,26.077 17.076,26.840 C16.639,28.325 15.227,29.362 13.641,29.362 L12.259,29.362 L12.259,33.638 L13.641,33.638 C15.226,33.638 16.638,34.675 17.075,36.159 C17.300,36.922 17.581,37.420 17.969,38.110 L18.288,38.682 C19.031,40.046 18.768,41.781 17.647,42.901 L16.668,43.880 L19.118,46.330 L20.097,45.351 C21.218,44.230 22.951,43.966 24.317,44.710 L24.885,45.027 C25.577,45.417 26.076,45.698 26.840,45.923 C28.325,46.361 29.362,47.774 29.362,49.359 L29.362,50.742 L33.638,50.742 L33.638,49.359 C33.638,47.774 34.675,46.361 36.159,45.925 C36.923,45.699 37.422,45.418 38.114,45.028 L38.682,44.711 C40.045,43.968 41.780,44.232 42.900,45.352 L43.880,46.331 L46.330,43.881 L45.351,42.902 C44.230,41.782 43.967,40.047 44.710,38.683 L45.029,38.112 C45.418,37.421 45.698,36.923 45.923,36.160 C46.361,34.675 47.773,33.638 49.359,33.638 L50.741,33.638 L50.741,29.362 ZM31.500,44.328 C24.427,44.328 18.672,38.574 18.672,31.500 C18.672,24.427 24.427,18.672 31.500,18.672 C38.573,18.672 44.328,24.427 44.328,31.500 C44.328,38.574 38.573,44.328 31.500,44.328 ZM31.500,20.810 C25.606,20.810 20.810,25.606 20.810,31.500 C20.810,37.394 25.606,42.190 31.500,42.190 C37.394,42.190 42.190,37.394 42.190,31.500 C42.190,25.606 37.394,20.810 31.500,20.810 ZM36.845,32.569 L34.707,32.569 L34.707,33.638 C34.707,34.229 34.228,34.707 33.638,34.707 L29.362,34.707 C28.772,34.707 28.293,34.229 28.293,33.638 L28.293,29.362 C28.293,28.771 28.772,28.293 29.362,28.293 L30.431,28.293 L30.431,24.018 C30.431,23.426 30.910,22.948 31.500,22.948 C32.090,22.948 32.569,23.426 32.569,24.018 L32.569,28.293 L33.638,28.293 C34.228,28.293 34.707,28.771 34.707,29.362 L34.707,30.431 L36.845,30.431 C37.435,30.431 37.914,30.909 37.914,31.500 C37.914,32.091 37.435,32.569 36.845,32.569 ZM32.569,30.431 L30.431,30.431 L30.431,32.569 L32.569,32.569 L32.569,30.431 ZM49.058,9.261 C48.683,9.438 48.240,9.379 47.920,9.116 C43.843,5.729 37.689,3.707 31.458,3.707 C25.469,3.707 19.759,5.590 14.949,9.153 C14.759,9.295 14.536,9.363 14.314,9.363 C13.987,9.363 13.664,9.213 13.455,8.930 C13.103,8.456 13.204,7.787 13.677,7.436 C18.858,3.596 25.007,1.569 31.458,1.569 C37.341,1.569 43.185,3.262 47.534,6.167 L47.534,1.569 C47.534,0.978 48.013,0.500 48.603,0.500 C49.193,0.500 49.672,0.978 49.672,1.569 L49.672,8.294 C49.672,8.708 49.433,9.085 49.058,9.261 ZM3.707,31.542 C3.707,37.532 5.590,43.239 9.153,48.051 C9.505,48.524 9.404,49.193 8.931,49.545 C8.739,49.689 8.516,49.756 8.295,49.756 C7.968,49.756 7.645,49.606 7.435,49.323 C3.597,44.142 1.569,37.993 1.569,31.542 C1.569,25.659 3.262,19.814 6.168,15.466 L1.569,15.466 C0.979,15.466 0.500,14.988 0.500,14.396 C0.500,13.805 0.979,13.327 1.569,13.327 L8.294,13.327 C8.709,13.327 9.085,13.568 9.261,13.942 C9.438,14.316 9.381,14.761 9.116,15.079 C5.729,19.155 3.707,25.311 3.707,31.542 ZM13.942,53.739 C14.317,53.563 14.761,53.621 15.080,53.884 C19.157,57.271 25.311,59.293 31.542,59.293 C37.531,59.293 43.240,57.410 48.051,53.847 C48.525,53.495 49.195,53.596 49.546,54.070 C49.898,54.544 49.797,55.212 49.324,55.564 C44.142,59.403 37.993,61.431 31.542,61.431 C25.659,61.431 19.815,59.738 15.466,56.832 L15.466,61.431 C15.466,62.022 14.987,62.500 14.397,62.500 C13.806,62.500 13.328,62.022 13.328,61.431 L13.328,54.706 C13.328,54.291 13.567,53.915 13.942,53.739 Z"/>
</svg>