<svg 
 xmlns="http://www.w3.org/2000/svg"
 xmlns:xlink="http://www.w3.org/1999/xlink"
 width="63px" height="63px">
<path fill-rule="evenodd"  fill="rgb(87, 144, 247)"
 d="M2.917,38.786 C2.527,39.780 1.084,39.806 0.671,38.813 C0.443,38.268 0.659,37.616 1.166,37.312 C2.129,36.735 3.329,37.734 2.917,38.786 ZM61.212,51.447 L53.700,51.447 C53.515,51.742 53.289,52.017 53.021,52.264 C52.250,52.974 51.273,53.325 50.299,53.325 C49.732,53.325 49.165,53.205 48.640,52.968 C48.431,53.583 48.070,54.156 47.560,54.625 C46.789,55.336 45.812,55.687 44.838,55.687 C44.436,55.687 44.035,55.627 43.649,55.508 C43.454,56.234 43.058,56.892 42.492,57.414 C41.721,58.124 40.744,58.475 39.770,58.475 C38.913,58.475 38.058,58.202 37.346,57.663 C37.126,58.185 36.795,58.659 36.366,59.054 C35.595,59.765 34.618,60.115 33.644,60.115 C33.121,60.115 32.598,60.013 32.108,59.811 C31.547,61.491 29.882,62.601 28.120,62.493 C26.506,62.394 25.024,61.250 24.513,59.714 C22.250,60.562 19.655,59.105 19.155,56.751 C17.108,57.138 15.011,55.791 14.489,53.776 C12.636,54.248 10.643,53.269 9.832,51.547 L1.789,51.547 C1.120,51.547 0.578,51.005 0.578,50.337 L0.578,43.749 C0.578,43.080 1.120,42.538 1.789,42.538 C2.457,42.538 2.999,43.080 2.999,43.749 L2.999,49.126 L9.523,49.126 C9.648,48.458 9.946,47.814 10.424,47.266 L11.283,46.280 C12.713,44.640 15.212,44.468 16.853,45.899 L16.961,45.992 C17.417,46.390 17.759,46.870 17.985,47.392 C18.531,47.047 19.157,46.841 19.819,46.796 C21.993,46.648 23.987,48.385 24.136,50.558 C24.142,50.649 24.144,50.741 24.144,50.831 C25.024,50.858 25.899,51.177 26.613,51.799 L26.720,51.893 C27.519,52.590 27.969,53.540 28.056,54.521 C29.043,54.470 30.050,54.785 30.852,55.485 L32.461,57.173 C33.861,58.694 36.218,56.536 34.818,55.016 L29.612,49.362 C29.159,48.870 29.190,48.104 29.682,47.651 C30.174,47.198 30.940,47.229 31.393,47.721 L38.593,55.539 C39.981,57.047 42.341,54.904 40.947,53.380 L34.866,46.775 C34.413,46.283 34.444,45.517 34.936,45.064 C35.428,44.611 36.195,44.642 36.648,45.134 L43.661,52.751 C45.057,54.267 47.408,52.104 46.012,50.588 L39.934,43.987 C39.481,43.494 39.512,42.728 40.004,42.275 C40.497,41.822 41.263,41.854 41.716,42.346 L49.122,50.390 C49.719,51.037 50.731,51.080 51.380,50.483 C52.028,49.886 52.069,48.873 51.473,48.225 L44.918,41.107 C40.070,40.907 36.848,38.055 35.341,36.346 L34.152,37.742 C31.492,40.865 26.839,41.380 23.560,38.916 C23.295,38.716 23.123,38.417 23.085,38.087 C23.047,37.757 23.145,37.427 23.357,37.172 L30.385,28.738 L21.154,28.738 C20.404,28.738 19.663,28.932 19.009,29.299 L12.393,33.011 C11.383,33.578 10.236,33.879 9.078,33.882 L1.791,33.898 L1.788,33.898 C1.121,33.898 0.579,33.357 0.577,32.689 C0.576,32.020 1.117,31.477 1.786,31.476 L9.073,31.460 C9.819,31.458 10.557,31.264 11.208,30.899 L17.824,27.186 C18.839,26.617 19.990,26.316 21.154,26.316 L32.971,26.316 L41.516,26.316 C42.687,26.316 43.845,26.621 44.865,27.197 L51.431,30.908 C52.088,31.279 52.833,31.476 53.588,31.476 L61.212,31.476 C61.880,31.476 62.422,32.018 62.423,32.686 L62.423,50.236 C62.423,50.905 61.880,51.447 61.212,51.447 ZM15.316,47.771 C14.670,47.209 13.691,47.204 13.109,47.872 L12.250,48.857 C11.639,49.559 11.833,50.534 12.505,51.104 C13.140,51.657 14.106,51.591 14.659,50.957 L15.519,49.970 C16.100,49.302 15.961,48.334 15.316,47.771 ZM21.146,49.631 C20.500,49.067 19.522,49.063 18.940,49.731 L17.156,51.778 C16.246,52.823 17.175,54.488 18.519,54.396 C18.926,54.368 19.297,54.184 19.565,53.876 L21.348,51.831 C21.932,51.161 21.793,50.194 21.146,49.631 ZM25.087,53.682 C24.440,53.114 23.460,53.097 22.871,53.770 L21.862,54.928 C21.254,55.629 21.449,56.602 22.120,57.171 C22.754,57.724 23.720,57.658 24.273,57.024 L25.277,55.872 C25.853,55.211 25.727,54.243 25.087,53.682 ZM27.179,57.382 C25.707,58.853 28.165,61.108 29.516,59.557 C30.792,58.095 28.546,56.015 27.179,57.382 ZM60.000,33.898 L53.588,33.898 C52.417,33.898 51.259,33.593 50.240,33.017 L43.673,29.305 C43.016,28.934 42.271,28.738 41.516,28.738 L33.538,28.738 L26.133,37.625 C28.240,38.522 30.762,37.986 32.308,36.172 L34.459,33.646 C34.708,33.354 35.079,33.197 35.464,33.223 C35.846,33.249 36.194,33.456 36.401,33.779 C36.407,33.788 37.232,35.047 38.780,36.278 C40.797,37.884 43.045,38.697 45.460,38.697 C45.794,38.697 46.125,38.843 46.351,39.088 L53.255,46.585 C53.896,47.282 54.243,48.146 54.304,49.025 L60.000,49.025 L60.000,33.898 ZM40.328,19.881 L23.439,19.881 L20.158,23.578 C19.924,23.842 19.592,23.985 19.252,23.985 C19.108,23.985 18.962,23.959 18.822,23.906 C18.352,23.728 18.041,23.277 18.041,22.774 L18.041,5.216 C18.041,2.616 20.157,0.500 22.757,0.500 L29.637,0.500 C30.277,0.500 30.806,0.997 30.846,1.636 C30.847,1.651 30.848,1.666 30.848,1.682 C30.866,2.330 30.366,2.882 29.713,2.923 C29.658,2.926 29.604,2.926 29.551,2.922 L22.757,2.922 C21.492,2.922 20.463,3.951 20.463,5.216 L20.463,19.585 L21.989,17.866 C22.219,17.607 22.549,17.458 22.895,17.458 L40.328,17.458 C41.592,17.458 42.621,16.430 42.621,15.166 L42.621,5.216 C42.621,3.958 41.604,2.934 40.349,2.922 C39.711,2.966 39.144,2.506 39.064,1.864 C39.058,1.815 39.054,1.761 39.054,1.711 C39.054,1.042 39.597,0.500 40.266,0.500 L40.328,0.500 C42.928,0.500 45.043,2.616 45.043,5.216 L45.043,15.166 C45.043,17.765 42.928,19.881 40.328,19.881 ZM30.538,14.175 C30.305,14.393 30.008,14.501 29.711,14.501 C29.392,14.501 29.074,14.376 28.836,14.128 L26.342,11.521 C25.880,11.038 25.897,10.271 26.380,9.809 C26.863,9.347 27.630,9.364 28.093,9.847 L29.758,11.588 L35.912,5.832 C36.400,5.375 37.166,5.401 37.623,5.890 C38.080,6.378 38.055,7.145 37.566,7.602 L30.538,14.175 ZM34.279,2.718 C33.811,2.412 33.622,1.794 33.823,1.276 C34.010,0.794 34.493,0.477 35.011,0.502 C35.527,0.527 35.980,0.892 36.118,1.388 C36.410,2.444 35.194,3.327 34.279,2.718 Z"/>
</svg>