<svg 
 xmlns="http://www.w3.org/2000/svg"
 xmlns:xlink="http://www.w3.org/1999/xlink"
 width="61px" height="61px">
<path fill-rule="evenodd"  fill="rgb(87, 144, 247)"
 d="M57.625,20.044 C57.280,20.044 56.954,19.974 56.647,19.862 L51.383,26.296 C51.651,26.735 51.813,27.244 51.813,27.794 C51.813,29.397 50.509,30.701 48.906,30.701 C48.043,30.701 47.275,30.315 46.742,29.715 L45.396,31.445 C45.621,31.919 45.821,32.396 45.994,32.871 L52.781,33.720 L52.781,43.181 L45.994,44.029 C45.821,44.506 45.621,44.983 45.396,45.457 L49.600,50.861 L42.911,57.550 L37.506,53.347 C37.031,53.572 36.555,53.771 36.078,53.945 L35.230,60.732 L25.770,60.732 L24.922,53.945 C24.444,53.771 23.968,53.572 23.494,53.347 L18.089,57.550 L11.400,50.861 L15.603,45.457 C15.379,44.982 15.179,44.505 15.006,44.029 L8.219,43.181 L8.219,33.720 L13.827,33.019 L5.546,29.706 C5.013,30.311 4.242,30.701 3.375,30.701 C1.773,30.701 0.469,29.397 0.469,27.794 C0.469,26.192 1.773,24.888 3.375,24.888 C4.977,24.888 6.281,26.192 6.281,27.794 C6.281,27.833 6.272,27.870 6.270,27.908 L15.533,31.613 C15.559,31.557 15.577,31.501 15.603,31.445 L11.400,26.040 L18.089,19.351 L23.494,23.554 C23.969,23.329 24.445,23.130 24.922,22.957 L25.770,16.169 L35.230,16.169 L36.080,22.968 C36.084,22.970 36.088,22.971 36.092,22.973 C36.166,22.967 36.237,22.951 36.313,22.951 C36.843,22.951 37.334,23.103 37.764,23.354 L42.911,19.351 L48.490,24.930 C48.627,24.911 48.764,24.888 48.906,24.888 C49.251,24.888 49.578,24.959 49.885,25.069 L55.148,18.637 C54.881,18.198 54.719,17.688 54.719,17.138 C54.719,15.536 56.023,14.232 57.625,14.232 C59.227,14.232 60.531,15.536 60.531,17.138 C60.531,18.740 59.227,20.044 57.625,20.044 ZM3.375,26.825 C2.841,26.825 2.406,27.259 2.406,27.794 C2.406,28.329 2.841,28.763 3.375,28.763 C3.909,28.763 4.344,28.329 4.344,27.794 C4.344,27.259 3.909,26.825 3.375,26.825 ZM34.235,23.830 L33.520,18.107 L27.480,18.107 L26.691,24.414 L26.100,24.602 C25.344,24.840 24.579,25.160 23.825,25.552 L23.275,25.837 L18.250,21.930 L13.979,26.201 L17.510,30.740 C17.641,30.723 17.771,30.701 17.906,30.701 C19.509,30.701 20.813,32.004 20.813,33.607 C20.813,33.633 20.806,33.657 20.805,33.683 L22.767,34.438 C24.223,31.646 27.139,29.732 30.500,29.732 C31.461,29.732 32.383,29.894 33.249,30.182 L34.287,27.933 C33.745,27.406 33.406,26.672 33.406,25.857 C33.406,25.068 33.724,24.354 34.235,23.830 ZM16.938,33.607 C16.938,34.141 17.372,34.575 17.906,34.575 C18.440,34.575 18.875,34.141 18.875,33.607 C18.875,33.072 18.440,32.638 17.906,32.638 C17.372,32.638 16.938,33.072 16.938,33.607 ZM30.500,41.357 C28.898,41.357 27.594,40.053 27.594,38.451 C27.594,38.424 27.600,38.400 27.601,38.374 L23.892,36.947 C23.782,37.431 23.719,37.934 23.719,38.451 C23.719,42.188 26.761,45.232 30.500,45.232 C34.239,45.232 37.281,42.188 37.281,38.451 C37.281,36.072 36.048,33.980 34.189,32.769 L32.526,36.373 C33.067,36.901 33.406,37.636 33.406,38.451 C33.406,40.053 32.102,41.357 30.500,41.357 ZM30.500,35.544 C30.590,35.544 30.674,35.563 30.763,35.570 L32.432,31.953 C31.818,31.771 31.171,31.669 30.500,31.669 C27.964,31.669 25.751,33.071 24.588,35.139 L28.304,36.568 C28.838,35.946 29.618,35.544 30.500,35.544 ZM29.531,38.451 C29.531,38.985 29.966,39.419 30.500,39.419 C31.034,39.419 31.469,38.985 31.469,38.451 C31.469,37.916 31.034,37.482 30.500,37.482 C29.966,37.482 29.531,37.916 29.531,38.451 ZM36.313,24.888 C35.779,24.888 35.344,25.322 35.344,25.857 C35.344,26.392 35.779,26.825 36.313,26.825 C36.846,26.825 37.281,26.392 37.281,25.857 C37.281,25.322 36.846,24.888 36.313,24.888 ZM36.313,28.763 C36.222,28.763 36.138,28.745 36.050,28.736 L35.006,31.000 C37.525,32.530 39.219,35.292 39.219,38.451 C39.219,43.258 35.307,47.169 30.500,47.169 C25.693,47.169 21.781,43.258 21.781,38.451 C21.781,37.689 21.890,36.953 22.075,36.247 L20.102,35.489 C19.569,36.111 18.788,36.513 17.906,36.513 C16.727,36.513 15.715,35.805 15.260,34.793 L10.156,35.431 L10.156,41.470 L16.465,42.259 L16.652,42.851 C16.890,43.605 17.210,44.369 17.602,45.124 L17.888,45.675 L13.980,50.700 L18.251,54.972 L23.276,51.064 L23.826,51.349 C24.580,51.741 25.345,52.061 26.101,52.300 L26.692,52.487 L27.480,58.794 L33.520,58.794 L34.309,52.486 L34.900,52.299 C35.656,52.059 36.421,51.740 37.175,51.348 L37.725,51.063 L42.750,54.970 L47.021,50.700 L43.113,45.674 L43.399,45.124 C43.790,44.368 44.110,43.604 44.349,42.850 L44.536,42.258 L50.844,41.470 L50.844,35.431 L44.535,34.642 L44.348,34.050 C44.110,33.296 43.790,32.532 43.398,31.777 L43.112,31.225 L45.433,28.241 L38.858,27.228 C38.367,28.137 37.417,28.763 36.313,28.763 ZM42.749,21.931 L39.021,24.830 C39.081,24.987 39.131,25.148 39.163,25.316 L46.359,26.423 C46.461,26.235 46.581,26.060 46.720,25.900 L42.749,21.931 ZM48.906,26.825 C48.372,26.825 47.938,27.259 47.938,27.794 C47.938,28.329 48.372,28.763 48.906,28.763 C49.440,28.763 49.875,28.329 49.875,27.794 C49.875,27.259 49.440,26.825 48.906,26.825 ZM57.625,16.169 C57.091,16.169 56.656,16.603 56.656,17.138 C56.656,17.673 57.091,18.107 57.625,18.107 C58.159,18.107 58.594,17.673 58.594,17.138 C58.594,16.603 58.159,16.169 57.625,16.169 ZM30.500,51.044 C26.458,51.044 22.634,49.084 20.270,45.798 L21.842,44.666 C23.844,47.446 27.079,49.107 30.500,49.107 C36.375,49.107 41.156,44.326 41.156,38.451 C41.156,36.344 40.542,34.306 39.381,32.559 L40.995,31.486 C42.367,33.552 43.094,35.961 43.094,38.451 C43.094,45.394 37.444,51.044 30.500,51.044 ZM18.543,42.413 L20.381,41.803 C20.550,42.310 20.757,42.809 20.999,43.284 L19.274,44.163 C18.987,43.602 18.741,43.013 18.543,42.413 ZM52.781,18.107 L50.844,18.107 L50.844,16.169 L52.781,16.169 L52.781,18.107 ZM52.781,14.232 L50.844,14.232 L50.844,8.419 L52.380,8.419 L46.969,3.008 L41.557,8.419 L43.094,8.419 L43.094,18.107 L41.156,18.107 L41.156,10.357 L36.880,10.357 L46.969,0.268 L57.057,10.357 L52.781,10.357 L52.781,14.232 ZM3.943,10.357 L8.219,10.357 L8.219,4.544 L10.156,4.544 L10.156,12.294 L8.620,12.294 L14.031,17.706 L19.443,12.294 L17.906,12.294 L17.906,0.669 L19.844,0.669 L19.844,10.357 L24.120,10.357 L14.031,20.445 L3.943,10.357 ZM8.219,0.669 L10.156,0.669 L10.156,2.607 L8.219,2.607 L8.219,0.669 Z"/>
</svg>