<svg 
 xmlns="http://www.w3.org/2000/svg"
 xmlns:xlink="http://www.w3.org/1999/xlink"
 width="27px" height="21px">
<path fill-rule="evenodd"  fill="rgb(0, 0, 0)"
 d="M25.973,3.433 L9.358,20.048 C9.356,20.050 9.355,20.053 9.353,20.054 C9.060,20.348 8.676,20.494 8.292,20.494 C7.907,20.494 7.523,20.348 7.230,20.054 C7.228,20.053 7.228,20.050 7.226,20.048 L0.610,13.432 C0.024,12.847 0.024,11.897 0.610,11.311 C1.196,10.725 2.146,10.725 2.732,11.311 L8.292,16.871 L23.852,1.311 C24.438,0.725 25.387,0.725 25.973,1.311 C26.559,1.897 26.559,2.847 25.973,3.433 Z"/>
</svg>