<svg 
 xmlns="http://www.w3.org/2000/svg"
 xmlns:xlink="http://www.w3.org/1999/xlink"
 width="63px" height="63px">
<path fill-rule="evenodd"  fill="rgb(87, 144, 247)"
 d="M58.528,16.537 C60.075,13.019 59.296,8.911 56.567,6.204 C53.838,3.498 49.723,2.753 46.219,4.330 C39.123,0.478 30.802,-0.443 23.036,1.764 L23.035,1.765 C15.413,3.915 8.916,8.924 4.897,15.747 C4.824,15.871 4.779,16.008 4.762,16.151 C4.269,16.806 3.859,17.520 3.541,18.277 L3.464,18.442 C1.571,22.534 0.589,26.987 0.588,31.495 C0.588,34.424 1.007,37.338 1.830,40.148 C1.128,42.512 1.395,45.058 2.573,47.224 C3.751,49.391 5.744,50.998 8.110,51.693 C12.869,57.222 19.434,60.883 26.638,62.027 C34.165,63.228 41.870,61.598 48.266,57.452 C52.040,59.157 56.487,58.158 59.168,55.002 C61.850,51.846 62.119,47.296 59.827,43.847 C63.684,35.040 63.204,24.937 58.528,16.537 ZM50.012,13.846 C48.871,13.846 47.946,12.920 47.946,11.779 C47.946,10.637 48.871,9.712 50.012,9.712 C51.154,9.712 52.079,10.637 52.079,11.779 C52.078,12.920 51.153,13.844 50.012,13.846 ZM47.925,15.326 C49.206,16.108 50.817,16.108 52.098,15.326 C53.349,15.886 54.330,16.916 54.830,18.192 C52.093,20.664 47.930,20.664 45.193,18.192 C45.693,16.916 46.675,15.886 47.925,15.326 L47.925,15.326 ZM57.246,12.812 C57.245,14.082 56.908,15.329 56.269,16.426 C55.632,15.323 54.713,14.411 53.606,13.780 C53.955,13.171 54.141,12.482 54.145,11.779 C54.145,9.496 52.295,7.645 50.012,7.645 C47.729,7.645 45.879,9.496 45.879,11.779 C45.884,12.481 46.069,13.170 46.418,13.780 C45.312,14.410 44.393,15.323 43.756,16.425 C42.235,13.793 42.523,10.490 44.477,8.161 C46.431,5.832 49.634,4.974 52.490,6.015 C55.347,7.056 57.247,9.772 57.246,12.812 ZM31.495,2.654 C35.887,2.655 40.222,3.658 44.168,5.587 C42.284,7.111 41.069,9.310 40.783,11.716 C39.910,11.336 38.952,11.197 38.008,11.315 C37.314,11.443 36.641,11.663 36.006,11.971 C35.601,12.163 35.180,12.319 34.748,12.438 C34.334,12.532 33.899,12.464 33.534,12.245 C33.382,12.137 33.374,12.051 33.371,12.018 C33.348,11.750 33.685,11.418 34.201,10.942 C34.835,10.442 35.334,9.791 35.653,9.049 C36.078,7.588 35.451,6.025 34.133,5.263 C32.882,4.574 31.428,4.346 30.026,4.621 C29.534,4.678 29.039,4.701 28.544,4.691 C27.309,4.624 26.130,4.152 25.190,3.347 C27.260,2.885 29.374,2.652 31.495,2.654 ZM22.921,3.962 C24.285,5.634 26.294,6.649 28.449,6.756 C29.039,6.772 29.629,6.746 30.216,6.679 C31.166,6.463 32.161,6.581 33.034,7.013 C33.521,7.274 33.790,7.816 33.704,8.362 C33.480,8.774 33.172,9.135 32.801,9.422 C31.877,10.048 31.320,11.089 31.313,12.205 C31.382,12.899 31.754,13.529 32.329,13.925 C33.181,14.489 34.228,14.679 35.224,14.448 C35.776,14.304 36.313,14.109 36.830,13.867 C37.299,13.636 37.795,13.465 38.307,13.360 C39.190,13.297 40.069,13.533 40.801,14.032 C41.010,15.615 41.626,17.117 42.589,18.390 C42.502,18.442 42.417,18.496 42.331,18.547 C42.054,18.711 41.785,18.872 41.467,19.091 C40.326,19.955 39.075,20.665 37.748,21.202 C37.246,21.370 36.735,21.509 36.218,21.619 C35.139,21.806 34.103,22.183 33.156,22.732 C31.257,23.958 31.489,25.920 31.635,27.099 C31.601,27.088 31.564,27.074 31.524,27.056 C31.346,26.984 31.172,26.901 31.001,26.820 C29.932,26.100 28.548,26.044 27.426,26.677 C26.303,27.310 25.634,28.523 25.698,29.810 C25.698,32.262 27.518,33.691 28.980,34.840 L29.490,35.244 C29.813,35.540 30.104,35.870 30.358,36.228 C28.279,35.705 26.201,35.191 24.121,34.685 C22.373,34.263 20.605,33.742 19.883,32.448 C19.607,31.862 19.420,31.237 19.329,30.595 C19.199,29.577 18.841,28.601 18.282,27.739 C17.221,26.556 15.791,25.765 14.224,25.495 L14.037,25.441 C12.489,24.980 11.638,24.426 11.360,23.699 C11.188,22.756 11.342,21.782 11.797,20.939 C12.381,19.724 12.576,18.358 12.355,17.028 C12.123,16.008 11.441,15.147 10.500,14.689 C9.813,14.382 9.056,14.263 8.307,14.344 C11.940,9.407 17.063,5.768 22.921,3.962 ZM2.654,31.495 C2.656,27.289 3.571,23.132 5.337,19.315 L5.415,19.148 C5.696,18.406 6.115,17.724 6.651,17.139 C6.840,16.948 7.064,16.796 7.312,16.691 C8.024,16.332 8.853,16.281 9.603,16.551 C9.994,16.748 10.271,17.113 10.354,17.543 C10.445,18.467 10.273,19.399 9.856,20.229 C9.198,21.530 9.045,23.028 9.429,24.435 C10.123,26.247 12.054,27.008 13.457,27.425 L13.657,27.482 C14.774,27.661 15.809,28.179 16.621,28.967 C16.988,29.589 17.220,30.281 17.303,30.999 C17.431,31.853 17.693,32.683 18.079,33.456 C19.208,35.478 21.540,36.188 23.635,36.694 C25.885,37.241 28.136,37.799 30.386,38.366 C30.840,38.514 31.329,38.508 31.778,38.350 C32.302,38.146 32.677,37.678 32.761,37.122 C32.998,35.556 30.834,33.674 30.802,33.647 L30.257,33.215 C28.975,32.208 27.764,31.257 27.764,29.800 C27.752,29.190 28.104,28.631 28.658,28.378 C29.048,28.214 29.367,28.334 30.118,28.688 C30.323,28.786 30.530,28.883 30.720,28.960 C31.522,29.392 32.509,29.269 33.181,28.655 C33.620,28.169 33.807,27.507 33.688,26.864 C33.518,25.486 33.581,24.917 34.278,24.468 C35.028,24.055 35.842,23.772 36.686,23.631 C37.283,23.504 37.871,23.342 38.449,23.146 C39.971,22.538 41.406,21.729 42.714,20.741 C42.921,20.599 43.150,20.464 43.384,20.326 C43.592,20.203 43.814,20.070 44.035,19.926 C45.954,21.545 48.447,22.317 50.944,22.065 C53.442,21.813 55.730,20.560 57.287,18.590 C60.966,25.924 61.344,34.479 58.327,42.110 C55.765,39.766 52.109,39.050 48.852,40.253 C45.595,41.456 43.282,44.377 42.859,47.823 C42.492,47.457 42.127,47.090 41.759,46.714 C40.334,45.365 38.692,44.265 36.902,43.460 C34.288,42.207 31.996,42.326 30.610,43.785 C29.965,44.549 29.451,45.414 29.090,46.347 C28.905,46.755 28.725,47.159 28.524,47.511 C28.157,48.197 27.657,48.804 27.053,49.296 C26.781,49.485 26.492,49.647 26.188,49.779 C25.559,50.036 24.987,50.418 24.507,50.901 C23.982,51.555 23.637,52.334 23.505,53.161 C23.433,53.530 23.321,53.891 23.170,54.235 C22.678,55.057 22.397,55.988 22.350,56.944 C22.364,57.682 22.576,58.402 22.964,59.029 C18.564,57.673 14.554,55.280 11.271,52.052 C15.586,51.815 19.167,48.634 19.913,44.377 C20.660,40.121 18.373,35.912 14.397,34.220 C10.420,32.529 5.802,33.802 3.254,37.292 C2.859,35.385 2.658,33.442 2.654,31.495 ZM10.745,43.813 C9.604,43.813 8.679,42.887 8.679,41.746 C8.679,40.604 9.604,39.679 10.745,39.679 C11.887,39.679 12.812,40.604 12.812,41.746 C12.811,42.887 11.886,43.811 10.745,43.813 ZM8.659,45.293 C9.940,46.074 11.551,46.074 12.832,45.293 C14.083,45.853 15.064,46.882 15.564,48.159 C12.827,50.630 8.664,50.630 5.927,48.159 C6.427,46.882 7.408,45.853 8.659,45.293 ZM10.745,35.545 C13.331,35.541 15.721,36.919 17.013,39.159 C18.305,41.398 18.301,44.157 17.002,46.393 C16.365,45.290 15.446,44.377 14.340,43.747 C14.689,43.137 14.874,42.448 14.879,41.746 C14.879,39.463 13.028,37.612 10.745,37.612 C8.463,37.612 6.612,39.463 6.612,41.746 C6.617,42.448 6.802,43.137 7.151,43.746 C6.045,44.377 5.126,45.290 4.489,46.392 C3.191,44.157 3.187,41.397 4.478,39.158 C5.770,36.919 8.160,35.541 10.745,35.545 ZM31.495,60.346 C30.037,60.345 28.582,60.232 27.142,60.008 C26.743,59.786 26.357,59.544 25.984,59.281 C25.149,58.761 24.578,57.906 24.417,56.936 C24.475,56.314 24.677,55.714 25.006,55.183 C25.237,54.692 25.408,54.174 25.514,53.641 C25.582,53.156 25.761,52.693 26.037,52.290 C26.343,52.012 26.696,51.792 27.081,51.641 C27.513,51.451 27.923,51.215 28.306,50.939 C29.129,50.281 29.813,49.466 30.315,48.540 C30.558,48.113 30.769,47.648 30.972,47.198 C31.248,46.480 31.632,45.808 32.110,45.205 C33.140,44.118 35.179,44.925 36.005,45.321 C37.577,46.027 39.022,46.986 40.283,48.161 C41.165,49.063 42.039,49.937 42.956,50.775 C43.385,52.937 44.568,54.876 46.293,56.247 C41.824,58.932 36.708,60.349 31.495,60.346 ZM47.260,54.359 C47.760,53.082 48.741,52.054 49.992,51.493 C51.273,52.274 52.884,52.274 54.165,51.493 C55.416,52.054 56.397,53.082 56.897,54.359 C54.160,56.830 49.997,56.830 47.260,54.359 ZM52.079,50.012 C50.937,50.012 50.012,49.087 50.012,47.945 C50.012,46.804 50.937,45.879 52.079,45.879 C53.220,45.879 54.145,46.804 54.145,47.945 C54.144,49.087 53.220,50.011 52.079,50.012 ZM58.335,52.592 C57.698,51.490 56.779,50.577 55.673,49.947 C56.022,49.337 56.208,48.648 56.212,47.945 C56.212,45.663 54.362,43.813 52.079,43.813 C49.796,43.813 47.946,45.663 47.946,47.945 C47.950,48.648 48.136,49.337 48.485,49.947 C47.378,50.576 46.460,51.490 45.822,52.592 C44.059,49.552 44.735,45.685 47.425,43.424 C50.116,41.163 54.042,41.163 56.732,43.424 C59.423,45.685 60.099,49.552 58.335,52.592 L58.335,52.592 Z"/>
</svg>