<svg 
 xmlns="http://www.w3.org/2000/svg"
 xmlns:xlink="http://www.w3.org/1999/xlink"
 width="60px" height="60px">
<path fill-rule="evenodd"  fill="rgb(87, 144, 247)"
 d="M59.127,38.174 L41.372,50.365 C41.342,50.385 41.310,50.404 41.278,50.420 C38.735,51.672 35.859,52.078 33.069,51.579 L22.804,49.689 C22.788,49.686 22.772,49.682 22.756,49.678 C22.008,49.489 21.215,49.591 20.540,49.965 L15.494,53.155 L17.114,58.472 C17.136,58.544 17.147,58.620 17.147,58.695 C17.147,59.118 16.804,59.461 16.382,59.461 L4.047,59.461 C3.660,59.461 3.334,59.172 3.287,58.788 L0.546,36.312 C0.542,36.281 0.541,36.250 0.541,36.219 C0.541,35.797 0.883,35.453 1.306,35.453 L9.530,35.453 C9.866,35.453 10.164,35.674 10.262,35.996 L11.228,39.166 C12.051,38.920 12.810,38.496 13.453,37.925 L15.153,36.412 C15.169,36.397 15.185,36.384 15.202,36.372 C18.828,33.629 23.688,33.155 27.776,35.143 L28.480,35.484 C29.479,35.966 30.573,36.217 31.682,36.218 L36.801,36.218 L40.649,34.125 C42.631,32.984 45.116,33.209 46.862,34.686 L47.577,34.302 C47.582,34.300 47.588,34.296 47.594,34.293 C49.208,33.476 51.326,34.051 52.548,35.534 L52.851,35.371 C55.144,34.129 58.007,34.913 59.350,37.148 C59.559,37.495 59.461,37.944 59.127,38.174 ZM8.962,36.984 L2.171,36.984 L4.724,57.930 L15.348,57.930 L8.962,36.984 ZM41.408,35.455 C41.402,35.459 41.395,35.463 41.389,35.466 L39.758,36.351 C40.547,36.524 41.292,36.859 41.944,37.335 L45.368,35.492 C44.153,34.760 42.636,34.746 41.408,35.455 ZM48.294,35.655 L43.102,38.453 C43.499,38.956 43.811,39.522 44.024,40.128 L44.419,39.919 L51.152,36.287 C50.402,35.571 49.227,35.188 48.294,35.655 ZM53.578,36.718 L45.138,41.269 L44.339,41.690 C44.347,41.813 44.352,41.935 44.352,42.059 C44.352,42.482 44.009,42.824 43.587,42.824 C43.575,42.824 43.563,42.824 43.552,42.824 L37.727,42.561 C36.021,42.484 34.311,42.563 32.619,42.796 C32.206,42.849 31.826,42.562 31.764,42.149 C31.702,41.731 31.991,41.341 32.409,41.280 C34.193,41.033 35.997,40.950 37.796,41.031 L42.746,41.255 C42.357,39.221 40.580,37.750 38.510,37.748 L31.681,37.748 C30.341,37.745 29.019,37.443 27.813,36.861 L27.109,36.521 C23.546,34.787 19.313,35.194 16.147,37.575 L14.470,39.068 C13.663,39.786 12.709,40.319 11.674,40.632 L15.029,51.636 L19.739,48.659 C19.751,48.651 19.763,48.644 19.775,48.637 C20.786,48.070 21.976,47.908 23.103,48.187 L33.343,50.072 C35.791,50.510 38.314,50.159 40.549,49.071 L57.603,37.363 C56.562,36.261 54.911,35.996 53.578,36.718 ZM9.568,57.173 C8.237,57.173 7.158,56.094 7.158,54.762 C7.160,53.432 8.238,52.354 9.568,52.353 C10.899,52.353 11.978,53.431 11.978,54.762 C11.978,56.094 10.899,57.173 9.568,57.173 ZM9.568,53.884 L9.568,53.884 C9.083,53.885 8.690,54.278 8.689,54.762 C8.689,55.248 9.083,55.642 9.568,55.642 C10.054,55.642 10.447,55.248 10.447,54.762 C10.447,54.277 10.054,53.884 9.568,53.884 ZM52.966,27.901 L40.142,27.901 L40.142,29.658 C40.142,30.081 39.799,30.424 39.376,30.424 L20.643,30.424 C20.221,30.424 19.878,30.081 19.878,29.658 L19.878,27.901 L7.034,27.901 C6.611,27.901 6.268,27.558 6.268,27.135 L6.268,22.167 C6.269,19.056 8.748,16.513 11.858,16.434 C12.108,16.427 12.344,16.543 12.493,16.744 C12.666,16.977 12.867,17.189 13.092,17.373 C14.593,18.601 16.807,18.381 18.035,16.879 C18.205,16.672 18.417,16.413 18.824,16.443 C19.747,16.500 20.643,16.781 21.434,17.263 C21.523,17.158 21.615,17.056 21.712,16.957 C22.882,15.753 24.479,15.057 26.158,15.018 C26.407,15.011 26.644,15.127 26.792,15.328 C26.995,15.603 27.232,15.851 27.496,16.067 C29.258,17.509 31.855,17.249 33.296,15.487 C33.490,15.252 33.690,15.012 34.086,15.028 C35.822,15.133 37.442,15.936 38.577,17.255 C39.427,16.740 40.398,16.456 41.393,16.434 C41.642,16.427 41.879,16.543 42.028,16.744 C42.200,16.978 42.402,17.189 42.627,17.373 C44.128,18.602 46.341,18.381 47.570,16.879 C47.740,16.672 47.950,16.414 48.359,16.443 C51.378,16.636 53.729,19.141 53.731,22.167 L53.731,27.135 C53.731,27.558 53.388,27.901 52.966,27.901 ZM19.084,18.009 C18.949,18.161 18.804,18.304 18.652,18.439 C16.562,20.281 13.374,20.080 11.532,17.990 C9.413,18.242 7.813,20.032 7.799,22.167 L7.799,26.370 L19.878,26.370 L19.878,21.459 C19.876,20.443 20.116,19.441 20.578,18.536 C20.118,18.266 19.611,18.088 19.084,18.009 ZM38.611,21.459 C38.609,19.005 36.798,16.929 34.368,16.592 C34.193,16.793 34.004,16.981 33.802,17.155 C31.439,19.196 27.869,18.935 25.828,16.572 C23.326,16.840 21.425,18.943 21.409,21.459 L21.409,28.893 L38.611,28.893 L38.611,21.459 ZM52.200,22.167 C52.198,20.086 50.676,18.319 48.619,18.009 C48.484,18.161 48.339,18.305 48.186,18.439 C46.096,20.281 42.908,20.080 41.066,17.989 C40.490,18.052 39.934,18.236 39.434,18.528 C39.900,19.434 40.142,20.439 40.142,21.459 L40.142,26.370 L52.200,26.370 L52.200,22.167 ZM44.767,16.308 C41.905,16.308 39.585,13.988 39.585,11.126 L39.585,8.918 C39.585,6.056 41.905,3.737 44.767,3.737 C47.629,3.737 49.949,6.056 49.949,8.918 L49.949,11.126 C49.949,13.988 47.629,16.308 44.767,16.308 ZM48.418,8.918 C48.418,8.918 48.418,8.917 48.418,8.917 C48.417,6.901 46.782,5.266 44.766,5.267 C42.750,5.267 41.116,6.902 41.117,8.918 L41.117,11.126 C41.117,11.127 41.117,11.127 41.117,11.128 C41.117,13.144 42.752,14.778 44.768,14.778 C46.784,14.777 48.418,13.143 48.418,11.126 L48.418,8.918 ZM30.037,14.629 C26.828,14.645 24.214,12.055 24.199,8.846 L24.199,6.323 C24.214,3.135 26.795,0.555 29.983,0.540 C33.192,0.525 35.805,3.114 35.821,6.323 L35.821,8.846 C35.806,12.034 33.225,14.615 30.037,14.629 ZM34.290,6.323 C34.277,3.978 32.378,2.079 30.033,2.067 C27.669,2.054 25.743,3.959 25.730,6.323 L25.730,8.846 C25.743,11.191 27.641,13.090 29.986,13.102 C32.350,13.115 34.277,11.209 34.290,8.846 L34.290,6.323 ZM15.232,16.308 C12.371,16.308 10.051,13.988 10.051,11.126 L10.051,8.918 C10.051,6.056 12.371,3.737 15.232,3.737 C18.094,3.737 20.414,6.056 20.414,8.918 L20.414,11.126 C20.414,13.988 18.094,16.308 15.232,16.308 ZM18.883,8.918 C18.883,8.918 18.883,8.917 18.883,8.917 C18.883,6.901 17.248,5.266 15.232,5.267 C13.216,5.267 11.581,6.902 11.582,8.918 L11.582,11.126 C11.582,11.127 11.582,11.127 11.582,11.128 C11.582,13.144 13.217,14.778 15.233,14.778 C17.249,14.777 18.883,13.143 18.883,11.126 L18.883,8.918 Z"/>
</svg>